<?xml version="1.0" encoding="UTF-8" standalone="no"?>
<!DOCTYPE svg PUBLIC "-//W3C//DTD SVG 1.1//EN" "http://www.w3.org/Graphics/SVG/1.1/DTD/svg11.dtd">
<svg width="100%" height="100%" viewBox="0 0 50 50" version="1.1" xmlns="http://www.w3.org/2000/svg" xmlns:xlink="http://www.w3.org/1999/xlink" xml:space="preserve" xmlns:serif="http://www.serif.com/" style="fill-rule:evenodd;clip-rule:evenodd;stroke-linecap:round;stroke-linejoin:round;">
    <g transform="matrix(1,0,0,1,-2677.33,-765.94)">
        <g id="dashicos" transform="matrix(0.0390625,0,0,0.0625,2677.33,765.94)">
            <rect x="0" y="0" width="1280" height="800" style="fill:none;"/>
            <g transform="matrix(1.20033,0,0,0.241316,-8959.43,-1487.58)">
                <g transform="matrix(17.7739,0,0,55.2558,7428.55,6047.55)">
                    <path d="M38.15,21.7C38.15,25.09 35.39,31 32,31C28.61,31 25.85,25.08 25.85,21.68C25.982,18.402 28.715,15.778 31.995,15.778C35.275,15.778 38.008,18.402 38.14,21.68L38.15,21.7Z" style="fill:none;fill-rule:nonzero;stroke:rgb(76,112,159);stroke-width:1.58px;"/>
                </g>
                <g transform="matrix(17.7739,0,0,55.2558,7428.55,6047.55)">
                    <path d="M19.34,48.3C19.34,41.355 25.055,35.64 32,35.64C38.945,35.64 44.66,41.355 44.66,48.3" style="fill:none;fill-rule:nonzero;stroke:rgb(76,112,159);stroke-width:1.58px;"/>
                </g>
                <g transform="matrix(17.7739,0,0,55.2558,7428.55,6047.55)">
                    <path d="M53.49,25.77C53.49,28.64 51.16,33.77 48.29,33.77C45.42,33.77 43.09,28.6 43.09,25.77C43.09,22.915 45.44,20.565 48.295,20.565C51.15,20.565 53.5,22.915 53.5,25.77L53.49,25.77Z" style="fill:none;fill-rule:nonzero;stroke:rgb(76,112,159);stroke-width:1.58px;"/>
                </g>
                <g transform="matrix(17.7739,0,0,55.2558,7428.55,6047.55)">
                    <path d="M41.81,39.9C43.672,38.491 45.945,37.727 48.28,37.727C54.161,37.727 59,42.567 59,48.447C59,48.448 59,48.449 59,48.45" style="fill:none;fill-rule:nonzero;stroke:rgb(76,112,159);stroke-width:1.58px;"/>
                </g>
                <g transform="matrix(17.7739,0,0,55.2558,7428.55,6047.55)">
                    <path d="M10.51,25.77C10.51,28.64 12.84,33.77 15.71,33.77C18.58,33.77 20.91,28.6 20.91,25.77C20.91,22.915 18.56,20.565 15.705,20.565C12.85,20.565 10.5,22.915 10.5,25.77L10.51,25.77Z" style="fill:none;fill-rule:nonzero;stroke:rgb(76,112,159);stroke-width:1.58px;"/>
                </g>
                <g transform="matrix(17.7739,0,0,55.2558,7428.55,6047.55)">
                    <path d="M22.19,39.9C20.328,38.491 18.055,37.727 15.72,37.727C9.839,37.727 5,42.567 5,48.447C5,48.448 5,48.449 5,48.45" style="fill:none;fill-rule:nonzero;stroke:rgb(76,112,159);stroke-width:1.58px;"/>
                </g>
            </g>
        </g>
    </g>
</svg>
