<?xml version="1.0" encoding="UTF-8" standalone="no"?><!DOCTYPE svg PUBLIC "-//W3C//DTD SVG 1.1//EN" "http://www.w3.org/Graphics/SVG/1.1/DTD/svg11.dtd"><svg width="100%" height="100%" viewBox="0 0 618 1010" version="1.1" xmlns="http://www.w3.org/2000/svg" xmlns:xlink="http://www.w3.org/1999/xlink" xml:space="preserve" style="fill-rule:evenodd;clip-rule:evenodd;stroke-linejoin:round;stroke-miterlimit:1.41421;"><g id="bulb-bulb"><path d="M308.819,0c-170.289,0 -308.819,138.604 -308.819,308.918c0,66.676 20.96,130.245 59.87,182.594l14.302,21.206c44.508,65.27 105.463,154.78 102.036,217.412l-1.233,22.686l245.004,-0.149l21.65,-0.394l-0.197,-21.65c0,-0.691 0.542,-71.879 104.919,-222.688l9.519,-13.883c9.197,-12.107 17.581,-25.176 24.757,-38.541c4.611,-8.408 8.728,-16.891 12.452,-25.915c16.274,-38.171 24.511,-78.783 24.511,-120.678c0,-170.314 -138.53,-308.918 -308.771,-308.918Zm244.634,412.976c-3.156,7.718 -6.633,14.819 -10.528,21.97c-6.362,11.615 -13.563,22.834 -21.823,33.93l-10.134,14.696c-81.989,118.483 -104.404,191.817 -110.37,226.141l-182.101,0.123c-7.57,-72.791 -65.419,-157.665 -108.817,-221.357l-14.499,-21.403c-34.127,-46.111 -52.251,-100.729 -52.251,-158.158c0,-146.593 119.321,-265.84 265.889,-265.84c146.544,0 265.816,119.247 265.816,265.84c0,36.026 -7.102,70.967 -21.182,104.058Z" style="fill:#a9a9a9;fill-rule:nonzero;"/><rect x="245.177" y="967.046" width="127.236" height="42.954" style="fill:#a9a9a9;"/><rect x="179.906" y="882.222" width="257.802" height="43.004" style="fill:#a9a9a9;"/><path d="M403.967,114.627c-14.823,-5.47 -32.151,2.752 -37.516,17.399c-5.575,15.21 2.224,31.974 17.4,37.515c36.915,13.411 53.644,49.726 61.267,77.713c14.893,55.161 4.659,122.039 -14.54,145.049c-10.235,12.317 -8.542,30.81 3.881,41.186c5.224,4.376 11.893,6.706 18.706,6.706c2.117,0 4.198,-0.248 6.281,-0.636c6.352,-1.447 12.07,-4.905 16.164,-9.846c33.633,-40.48 44.962,-127.298 25.975,-197.776c-15.741,-58.479 -50.433,-100.124 -97.618,-117.31Z" style="fill:#a9a9a9;fill-rule:nonzero;"/><rect x="179.906" y="797.398" width="257.802" height="43.004" style="fill:#a9a9a9;"/></g></svg>