<?xml version="1.0" encoding="UTF-8" standalone="no"?><!DOCTYPE svg PUBLIC "-//W3C//DTD SVG 1.1//EN" "http://www.w3.org/Graphics/SVG/1.1/DTD/svg11.dtd"><svg width="100%" height="100%" viewBox="0 0 128 128" version="1.1" xmlns="http://www.w3.org/2000/svg" xmlns:xlink="http://www.w3.org/1999/xlink" xml:space="preserve" style="fill-rule:evenodd;clip-rule:evenodd;stroke-linejoin:round;stroke-miterlimit:1.41421;"><path d="M27.992,14.48l0.134,0.009l0.134,0.015l0.133,0.021l0.132,0.027l0.131,0.033l0.129,0.039l0.127,0.044l0.125,0.05l0.122,0.056l0.12,0.061l0.117,0.067l0.114,0.071l0.111,0.077l0.107,0.081l0.103,0.087l0.1,0.091l0.095,0.095l0.091,0.099l0.086,0.103l0.082,0.108l0.076,0.11l0.072,0.114l0.066,0.117l0.061,0.12l0.056,0.123l0.05,0.125l0.045,0.127l0.038,0.129l0.033,0.13l0.027,0.132l0.021,0.133l0.015,0.134l0.01,0.134l0.003,0.135l0,15.332l-0.003,0.134l-0.01,0.135l-0.015,0.134l-0.021,0.133l-0.027,0.131l-0.033,0.131l-0.038,0.129l-0.045,0.127l-0.05,0.125l-0.056,0.122l-0.061,0.12l-0.066,0.118l-0.072,0.114l-0.076,0.11l-0.082,0.107l-0.086,0.104l-0.091,0.099l-0.095,0.095l-0.1,0.091l-0.103,0.086l-0.107,0.082l-0.111,0.077l-0.114,0.071l-0.117,0.067l-0.12,0.061l-0.122,0.055l-0.125,0.051l-0.127,0.044l-0.129,0.039l-0.131,0.033l-0.132,0.027l-0.133,0.021l-0.134,0.015l-0.134,0.009l-0.134,0.003l-0.135,-0.003l-0.134,-0.009l-0.134,-0.015l-0.133,-0.021l-0.132,-0.027l-0.131,-0.033l-0.129,-0.039l-0.127,-0.044l-0.125,-0.051l-0.122,-0.055l-0.12,-0.061l-0.117,-0.067l-0.114,-0.071l-0.111,-0.077l-0.107,-0.082l-0.103,-0.086l-0.1,-0.091l-0.095,-0.095l-0.091,-0.099l-0.086,-0.104l-0.082,-0.107l-0.076,-0.11l-0.072,-0.114l-0.066,-0.118l-0.061,-0.12l-0.056,-0.122l-0.05,-0.125l-0.045,-0.127l-0.038,-0.129l-0.033,-0.131l-0.027,-0.131l-0.021,-0.133l-0.015,-0.134l-0.009,-0.135l-0.003,-0.134l0,-15.332l0.003,-0.135l0.009,-0.134l0.015,-0.134l0.021,-0.133l0.027,-0.132l0.033,-0.13l0.038,-0.129l0.045,-0.127l0.05,-0.125l0.056,-0.123l0.061,-0.12l0.066,-0.117l0.072,-0.114l0.076,-0.11l0.082,-0.108l0.086,-0.103l0.091,-0.099l0.095,-0.095l0.1,-0.091l0.103,-0.087l0.107,-0.081l0.111,-0.077l0.114,-0.071l0.117,-0.067l0.12,-0.061l0.122,-0.056l0.125,-0.05l0.127,-0.044l0.129,-0.039l0.131,-0.033l0.132,-0.027l0.133,-0.021l0.134,-0.015l0.134,-0.009l0.135,-0.003l0.134,0.003Z" style="fill:#fff;"/><path d="M28.062,71.014l0.204,0.021l0.202,0.035l0.199,0.048l0.195,0.062l0.191,0.075l0.185,0.088l0.178,0.101l0.172,0.112l0.163,0.124l0.154,0.134l0.145,0.145l0.135,0.155l0.123,0.163l0.113,0.171l0.1,0.179l0.088,0.185l0.075,0.19l0.062,0.196l0.049,0.199l0.035,0.201l0.021,0.204l0.007,0.205l0,36.516l-0.007,0.205l-0.021,0.204l-0.035,0.201l-0.049,0.199l-0.062,0.196l-0.075,0.19l-0.088,0.185l-0.1,0.179l-0.113,0.171l-0.123,0.163l-0.135,0.155l-0.145,0.145l-0.154,0.134l-0.163,0.124l-0.172,0.112l-0.178,0.101l-0.185,0.088l-0.191,0.075l-0.195,0.062l-0.199,0.048l-0.202,0.035l-0.204,0.021l-0.204,0.007l-0.205,-0.007l-0.204,-0.021l-0.202,-0.035l-0.199,-0.048l-0.195,-0.062l-0.191,-0.075l-0.185,-0.088l-0.178,-0.101l-0.172,-0.112l-0.163,-0.124l-0.154,-0.134l-0.145,-0.145l-0.135,-0.155l-0.123,-0.163l-0.113,-0.171l-0.1,-0.179l-0.088,-0.185l-0.075,-0.19l-0.062,-0.196l-0.049,-0.199l-0.035,-0.201l-0.02,-0.204l-0.007,-0.205l0,-36.516l0.007,-0.205l0.02,-0.204l0.035,-0.201l0.049,-0.199l0.062,-0.196l0.075,-0.19l0.088,-0.185l0.1,-0.179l0.113,-0.171l0.123,-0.163l0.135,-0.155l0.145,-0.145l0.154,-0.134l0.163,-0.124l0.172,-0.112l0.178,-0.101l0.185,-0.088l0.191,-0.075l0.195,-0.062l0.199,-0.048l0.202,-0.035l0.204,-0.021l0.205,-0.007l0.204,0.007Z" style="fill:#fff;"/><path d="M32.371,36.615l0.181,0.016l0.179,0.028l0.177,0.039l0.175,0.049l0.154,0.048l0.167,0.055l0.168,0.056l0.166,0.058l0.165,0.06l0.165,0.061l0.164,0.063l0.164,0.064l0.162,0.066l0.162,0.067l0.16,0.069l0.16,0.071l0.159,0.072l0.159,0.073l0.157,0.075l0.157,0.077l0.155,0.078l0.155,0.079l0.154,0.081l0.153,0.083l0.152,0.083l0.151,0.086l0.15,0.087l0.149,0.088l0.149,0.089l0.147,0.091l0.146,0.093l0.146,0.093l0.144,0.096l0.143,0.096l0.143,0.098l0.141,0.099l0.14,0.101l0.139,0.101l0.139,0.104l0.137,0.104l0.136,0.106l0.135,0.107l0.134,0.108l0.133,0.11l0.132,0.111l0.13,0.112l0.13,0.113l0.128,0.115l0.127,0.116l0.127,0.117l0.125,0.118l0.123,0.119l0.123,0.121l0.122,0.122l0.12,0.123l0.119,0.124l0.118,0.126l0.117,0.126l0.115,0.128l0.114,0.128l0.113,0.13l0.112,0.131l0.111,0.132l0.109,0.133l0.108,0.135l0.107,0.135l0.105,0.137l0.104,0.137l0.103,0.139l0.101,0.139l0.1,0.141l0.099,0.141l0.098,0.143l0.096,0.144l0.095,0.144l0.093,0.146l0.092,0.146l0.09,0.148l0.09,0.149l0.087,0.149l0.087,0.151l0.085,0.151l0.083,0.152l0.082,0.153l0.081,0.155l0.079,0.155l0.077,0.155l0.076,0.157l0.075,0.158l0.073,0.158l0.071,0.16l0.071,0.16l0.068,0.161l0.067,0.162l0.065,0.163l0.064,0.163l0.062,0.164l0.061,0.165l0.059,0.166l0.058,0.167l0.055,0.167l0.055,0.168l0.052,0.169l0.051,0.169l0.049,0.17l0.048,0.171l0.046,0.172l0.044,0.172l0.043,0.173l0.04,0.174l0.039,0.174l0.038,0.175l0.035,0.175l0.034,0.176l0.033,0.177l0.03,0.177l0.028,0.178l0.027,0.178l0.025,0.179l0.024,0.18l0.021,0.18l0.02,0.18l0.017,0.181l0.016,0.182l0.014,0.182l0.013,0.182l0.01,0.183l0.009,0.183l0.006,0.184l0.005,0.184l0.003,0.185l0.001,0.185l-0.001,0.189l-0.003,0.189l-0.005,0.188l-0.007,0.188l-0.009,0.187l-0.011,0.188l-0.013,0.186l-0.014,0.186l-0.017,0.186l-0.019,0.185l-0.02,0.184l-0.023,0.184l-0.024,0.184l-0.026,0.183l-0.028,0.182l-0.03,0.182l-0.032,0.181l-0.034,0.18l-0.035,0.18l-0.037,0.179l-0.039,0.179l-0.041,0.178l-0.043,0.177l-0.044,0.177l-0.047,0.176l-0.047,0.175l-0.05,0.174l-0.052,0.174l-0.053,0.173l-0.055,0.172l-0.056,0.171l-0.059,0.171l-0.06,0.17l-0.061,0.169l-0.064,0.168l-0.065,0.167l-0.066,0.167l-0.069,0.166l-0.07,0.164l-0.071,0.164l-0.073,0.164l-0.075,0.162l-0.076,0.161l-0.078,0.16l-0.079,0.16l-0.081,0.158l-0.083,0.158l-0.084,0.157l-0.086,0.155l-0.087,0.155l-0.088,0.154l-0.09,0.153l-0.092,0.151l-0.093,0.151l-0.094,0.15l-0.096,0.149l-0.097,0.147l-0.099,0.147l-0.1,0.146l-0.102,0.144l-0.103,0.143l-0.104,0.143l-0.106,0.141l-0.107,0.14l-0.109,0.139l-0.109,0.138l-0.112,0.137l-0.112,0.135l-0.114,0.135l-0.115,0.133l-0.116,0.132l-0.118,0.131l-0.119,0.13l-0.12,0.129l-0.122,0.127l-0.123,0.126l-0.124,0.125l-0.125,0.124l-0.126,0.122l-0.128,0.122l-0.129,0.12l-0.13,0.118l-0.131,0.118l-0.133,0.116l-0.133,0.114l-0.135,0.114l-0.136,0.112l-0.137,0.111l-0.138,0.109l-0.14,0.109l-0.14,0.106l-0.142,0.106l-0.142,0.104l-0.144,0.102l-0.145,0.102l-0.146,0.099l-0.146,0.099l-0.148,0.097l-0.149,0.095l-0.15,0.094l-0.151,0.093l-0.152,0.091l-0.153,0.09l-0.154,0.088l-0.155,0.087l-0.156,0.085l-0.157,0.083l-0.158,0.083l-0.159,0.08l-0.16,0.079l-0.16,0.078l-0.162,0.075l-0.162,0.075l-0.164,0.073l-0.164,0.071l-0.165,0.069l-0.166,0.068l-0.166,0.066l-0.168,0.065l-0.168,0.063l-0.17,0.061l-0.17,0.059l-0.171,0.058l-0.171,0.057l-0.173,0.054l-0.173,0.053l-0.173,0.051l-0.16,0.045l-0.176,0.044l-0.178,0.033l-0.18,0.022l-0.181,0.012l-0.181,0.001l-0.181,-0.011l-0.18,-0.021l-0.178,-0.032l-0.176,-0.043l-0.174,-0.053l-0.169,-0.064l-0.166,-0.074l-0.16,-0.084l-0.156,-0.093l-0.149,-0.102l-0.143,-0.112l-0.136,-0.119l-0.129,-0.128l-0.12,-0.135l-0.113,-0.143l-0.103,-0.148l-0.094,-0.155l-0.085,-0.16l-0.075,-0.165l-0.065,-0.17l-0.054,-0.172l-0.044,-0.176l-0.033,-0.178l-0.023,-0.18l-0.011,-0.181l-0.001,-0.181l0.01,-0.181l0.022,-0.18l0.032,-0.178l0.043,-0.177l0.053,-0.173l0.064,-0.169l0.073,-0.166l0.084,-0.161l0.093,-0.155l0.103,-0.149l0.111,-0.143l0.12,-0.137l0.128,-0.128l0.135,-0.121l0.142,-0.112l0.149,-0.103l0.155,-0.095l0.16,-0.084l0.165,-0.075l0.169,-0.065l0.173,-0.054l0.13,-0.037l0.114,-0.034l0.114,-0.034l0.113,-0.036l0.113,-0.037l0.112,-0.038l0.112,-0.039l0.112,-0.041l0.11,-0.041l0.111,-0.043l0.109,-0.043l0.11,-0.045l0.108,-0.046l0.108,-0.046l0.108,-0.048l0.107,-0.049l0.106,-0.05l0.106,-0.051l0.105,-0.052l0.105,-0.053l0.104,-0.054l0.103,-0.056l0.103,-0.056l0.102,-0.057l0.102,-0.058l0.101,-0.059l0.1,-0.06l0.1,-0.062l0.099,-0.062l0.098,-0.063l0.098,-0.064l0.097,-0.065l0.097,-0.066l0.095,-0.067l0.095,-0.068l0.095,-0.068l0.093,-0.07l0.093,-0.071l0.092,-0.071l0.092,-0.073l0.09,-0.073l0.09,-0.074l0.089,-0.075l0.089,-0.076l0.088,-0.077l0.086,-0.078l0.086,-0.078l0.086,-0.08l0.084,-0.08l0.084,-0.081l0.083,-0.082l0.082,-0.083l0.081,-0.083l0.081,-0.084l0.079,-0.085l0.079,-0.086l0.078,-0.087l0.077,-0.088l0.076,-0.088l0.076,-0.089l0.074,-0.09l0.074,-0.09l0.072,-0.091l0.072,-0.092l0.071,-0.093l0.07,-0.093l0.069,-0.094l0.068,-0.095l0.067,-0.096l0.066,-0.096l0.065,-0.097l0.065,-0.097l0.063,-0.099l0.062,-0.098l0.062,-0.1l0.06,-0.1l0.06,-0.101l0.058,-0.101l0.058,-0.102l0.056,-0.103l0.055,-0.103l0.055,-0.104l0.053,-0.105l0.053,-0.105l0.051,-0.106l0.05,-0.106l0.049,-0.107l0.048,-0.107l0.047,-0.108l0.046,-0.109l0.045,-0.109l0.044,-0.109l0.043,-0.11l0.042,-0.111l0.04,-0.111l0.04,-0.112l0.038,-0.112l0.037,-0.113l0.036,-0.113l0.035,-0.114l0.034,-0.114l0.033,-0.115l0.031,-0.115l0.031,-0.115l0.029,-0.116l0.028,-0.117l0.027,-0.117l0.026,-0.118l0.024,-0.118l0.024,-0.118l0.022,-0.119l0.021,-0.119l0.019,-0.12l0.019,-0.12l0.017,-0.12l0.016,-0.121l0.015,-0.122l0.014,-0.122l0.012,-0.122l0.011,-0.123l0.01,-0.123l0.008,-0.123l0.007,-0.124l0.006,-0.124l0.005,-0.125l0.003,-0.125l0.002,-0.125l0.001,-0.126l-0.001,-0.123l-0.002,-0.123l-0.003,-0.122l-0.004,-0.122l-0.006,-0.122l-0.007,-0.121l-0.008,-0.12l-0.009,-0.121l-0.011,-0.12l-0.012,-0.119l-0.013,-0.119l-0.014,-0.119l-0.015,-0.119l-0.017,-0.118l-0.017,-0.117l-0.019,-0.117l-0.02,-0.117l-0.021,-0.116l-0.023,-0.116l-0.023,-0.116l-0.025,-0.115l-0.025,-0.115l-0.027,-0.114l-0.028,-0.113l-0.029,-0.114l-0.03,-0.113l-0.032,-0.112l-0.032,-0.112l-0.034,-0.111l-0.034,-0.111l-0.036,-0.111l-0.036,-0.11l-0.038,-0.109l-0.039,-0.109l-0.04,-0.109l-0.041,-0.108l-0.042,-0.108l-0.043,-0.107l-0.044,-0.106l-0.045,-0.106l-0.046,-0.106l-0.047,-0.105l-0.048,-0.104l-0.05,-0.104l-0.05,-0.103l-0.051,-0.103l-0.052,-0.102l-0.053,-0.102l-0.054,-0.101l-0.055,-0.1l-0.056,-0.1l-0.057,-0.099l-0.058,-0.099l-0.059,-0.098l-0.06,-0.097l-0.06,-0.097l-0.062,-0.096l-0.063,-0.096l-0.063,-0.095l-0.064,-0.094l-0.066,-0.093l-0.066,-0.093l-0.067,-0.093l-0.068,-0.091l-0.069,-0.091l-0.07,-0.09l-0.07,-0.09l-0.072,-0.089l-0.072,-0.088l-0.073,-0.087l-0.074,-0.087l-0.075,-0.086l-0.075,-0.085l-0.077,-0.085l-0.077,-0.083l-0.078,-0.083l-0.079,-0.083l-0.08,-0.081l-0.08,-0.081l-0.081,-0.08l-0.082,-0.079l-0.083,-0.078l-0.083,-0.077l-0.085,-0.077l-0.085,-0.076l-0.085,-0.075l-0.087,-0.074l-0.087,-0.074l-0.088,-0.072l-0.089,-0.072l-0.089,-0.071l-0.09,-0.07l-0.091,-0.069l-0.091,-0.068l-0.092,-0.067l-0.093,-0.067l-0.093,-0.065l-0.094,-0.065l-0.095,-0.064l-0.095,-0.062l-0.096,-0.062l-0.097,-0.061l-0.097,-0.06l-0.098,-0.06l-0.099,-0.058l-0.099,-0.057l-0.099,-0.056l-0.101,-0.056l-0.101,-0.054l-0.101,-0.053l-0.102,-0.053l-0.103,-0.051l-0.103,-0.051l-0.103,-0.049l-0.105,-0.048l-0.104,-0.048l-0.106,-0.046l-0.105,-0.046l-0.107,-0.044l-0.107,-0.043l-0.107,-0.043l-0.108,-0.041l-0.108,-0.04l-0.109,-0.039l-0.11,-0.038l-0.11,-0.037l-0.11,-0.036l-0.125,-0.04l-0.171,-0.059l-0.168,-0.07l-0.162,-0.08l-0.158,-0.089l-0.152,-0.099l-0.146,-0.108l-0.138,-0.116l-0.132,-0.125l-0.124,-0.132l-0.116,-0.14l-0.107,-0.146l-0.098,-0.152l-0.088,-0.159l-0.079,-0.163l-0.069,-0.167l-0.059,-0.172l-0.048,-0.174l-0.037,-0.178l-0.027,-0.179l-0.016,-0.181l-0.005,-0.181l0.006,-0.181l0.017,-0.18l0.028,-0.179l0.038,-0.177l0.049,-0.175l0.06,-0.171l0.07,-0.167l0.08,-0.163l0.089,-0.157l0.099,-0.152l0.108,-0.146l0.116,-0.139l0.125,-0.132l0.132,-0.123l0.139,-0.116l0.147,-0.107l0.152,-0.098l0.158,-0.089l0.163,-0.078l0.168,-0.069l0.171,-0.059l0.175,-0.048l0.177,-0.038l0.18,-0.026l0.18,-0.016l0.181,-0.005l0.181,0.006Z" style="fill:#fff;"/><path d="M23.223,36.798l0.18,0.02l0.179,0.031l0.176,0.041l0.174,0.052l0.17,0.062l0.166,0.072l0.162,0.083l0.156,0.092l0.15,0.101l0.144,0.11l0.137,0.118l0.13,0.127l0.122,0.134l0.113,0.141l0.105,0.148l0.096,0.154l0.086,0.16l0.076,0.164l0.066,0.169l0.056,0.172l0.046,0.176l0.035,0.177l0.024,0.18l0.013,0.181l0.002,0.181l-0.009,0.181l-0.02,0.18l-0.03,0.179l-0.042,0.176l-0.051,0.174l-0.063,0.17l-0.072,0.166l-0.082,0.162l-0.092,0.156l-0.101,0.15l-0.11,0.144l-0.119,0.137l-0.127,0.13l-0.134,0.122l-0.141,0.113l-0.148,0.105l-0.154,0.095l-0.159,0.087l-0.165,0.076l-0.168,0.066l-0.12,0.043l-0.105,0.039l-0.104,0.04l-0.105,0.04l-0.103,0.042l-0.104,0.043l-0.102,0.044l-0.103,0.044l-0.101,0.046l-0.101,0.047l-0.101,0.047l-0.1,0.049l-0.1,0.049l-0.099,0.05l-0.099,0.052l-0.098,0.052l-0.097,0.053l-0.097,0.054l-0.097,0.055l-0.096,0.056l-0.095,0.056l-0.095,0.058l-0.094,0.058l-0.093,0.06l-0.093,0.06l-0.092,0.061l-0.092,0.062l-0.091,0.062l-0.091,0.064l-0.09,0.064l-0.089,0.066l-0.089,0.066l-0.087,0.067l-0.088,0.067l-0.086,0.069l-0.086,0.069l-0.086,0.07l-0.085,0.071l-0.084,0.072l-0.083,0.073l-0.082,0.073l-0.082,0.074l-0.082,0.075l-0.08,0.075l-0.08,0.077l-0.079,0.077l-0.078,0.078l-0.078,0.078l-0.077,0.079l-0.076,0.08l-0.075,0.081l-0.075,0.081l-0.074,0.083l-0.073,0.082l-0.072,0.084l-0.072,0.084l-0.07,0.085l-0.07,0.085l-0.069,0.087l-0.069,0.087l-0.067,0.087l-0.067,0.088l-0.066,0.089l-0.065,0.089l-0.064,0.09l-0.063,0.091l-0.063,0.091l-0.061,0.092l-0.061,0.093l-0.06,0.093l-0.059,0.094l-0.058,0.094l-0.058,0.095l-0.056,0.095l-0.056,0.096l-0.054,0.097l-0.054,0.097l-0.053,0.097l-0.052,0.099l-0.051,0.098l-0.05,0.1l-0.049,0.1l-0.048,0.1l-0.048,0.101l-0.046,0.101l-0.045,0.102l-0.045,0.102l-0.043,0.103l-0.043,0.104l-0.041,0.103l-0.041,0.105l-0.039,0.105l-0.039,0.105l-0.037,0.105l-0.037,0.107l-0.036,0.106l-0.034,0.107l-0.034,0.108l-0.032,0.108l-0.032,0.108l-0.03,0.109l-0.03,0.11l-0.028,0.109l-0.028,0.11l-0.026,0.111l-0.025,0.111l-0.024,0.111l-0.023,0.112l-0.023,0.112l-0.021,0.113l-0.019,0.113l-0.019,0.113l-0.018,0.114l-0.017,0.114l-0.015,0.115l-0.015,0.114l-0.013,0.116l-0.012,0.115l-0.011,0.116l-0.01,0.117l-0.009,0.117l-0.007,0.117l-0.007,0.117l-0.005,0.118l-0.004,0.118l-0.003,0.119l-0.002,0.118l-0.001,0.119l0.001,0.128l0.002,0.127l0.003,0.127l0.005,0.126l0.006,0.125l0.008,0.126l0.008,0.125l0.01,0.124l0.012,0.124l0.012,0.124l0.014,0.123l0.015,0.123l0.017,0.122l0.017,0.122l0.019,0.122l0.02,0.121l0.022,0.121l0.022,0.12l0.024,0.119l0.025,0.12l0.027,0.119l0.027,0.118l0.029,0.118l0.03,0.117l0.031,0.117l0.032,0.116l0.034,0.116l0.034,0.116l0.036,0.115l0.037,0.114l0.038,0.114l0.039,0.113l0.041,0.113l0.041,0.112l0.043,0.112l0.044,0.111l0.045,0.111l0.045,0.11l0.048,0.11l0.048,0.109l0.049,0.108l0.05,0.108l0.052,0.107l0.052,0.107l0.054,0.106l0.054,0.105l0.056,0.105l0.057,0.104l0.057,0.104l0.059,0.103l0.06,0.102l0.06,0.102l0.062,0.101l0.063,0.1l0.064,0.099l0.064,0.099l0.066,0.099l0.067,0.097l0.068,0.097l0.068,0.096l0.07,0.096l0.07,0.094l0.072,0.094l0.072,0.094l0.073,0.092l0.075,0.092l0.075,0.091l0.076,0.09l0.077,0.089l0.078,0.089l0.078,0.088l0.08,0.087l0.08,0.086l0.082,0.086l0.082,0.084l0.083,0.084l0.084,0.083l0.084,0.082l0.086,0.081l0.086,0.081l0.087,0.079l0.088,0.079l0.089,0.078l0.09,0.077l0.09,0.076l0.091,0.075l0.092,0.074l0.092,0.073l0.094,0.072l0.094,0.072l0.094,0.07l0.096,0.07l0.096,0.068l0.097,0.068l0.098,0.066l0.098,0.066l0.099,0.065l0.1,0.063l0.1,0.063l0.101,0.062l0.102,0.06l0.102,0.06l0.103,0.059l0.104,0.057l0.104,0.057l0.105,0.056l0.105,0.054l0.106,0.053l0.107,0.053l0.107,0.051l0.108,0.05l0.108,0.05l0.11,0.048l0.109,0.047l0.11,0.045l0.111,0.045l0.111,0.044l0.112,0.042l0.112,0.042l0.113,0.04l0.114,0.039l0.114,0.038l0.114,0.037l0.115,0.036l0.115,0.034l0.116,0.034l0.117,0.032l0.132,0.035l0.174,0.052l0.17,0.062l0.166,0.072l0.162,0.082l0.156,0.092l0.15,0.101l0.144,0.11l0.137,0.118l0.13,0.127l0.122,0.134l0.114,0.141l0.104,0.148l0.096,0.154l0.086,0.159l0.077,0.165l0.066,0.168l0.056,0.173l0.046,0.175l0.035,0.178l0.024,0.179l0.013,0.181l0.003,0.181l-0.009,0.181l-0.02,0.181l-0.03,0.178l-0.041,0.177l-0.052,0.173l-0.062,0.171l-0.072,0.166l-0.082,0.161l-0.092,0.157l-0.101,0.15l-0.11,0.144l-0.119,0.137l-0.126,0.13l-0.134,0.122l-0.142,0.113l-0.147,0.105l-0.154,0.096l-0.16,0.086l-0.164,0.077l-0.169,0.066l-0.172,0.056l-0.175,0.046l-0.178,0.035l-0.18,0.024l-0.18,0.013l-0.182,0.002l-0.181,-0.008l-0.18,-0.02l-0.178,-0.03l-0.177,-0.042l-0.163,-0.043l-0.177,-0.049l-0.176,-0.05l-0.176,-0.053l-0.174,-0.054l-0.174,-0.056l-0.174,-0.058l-0.172,-0.059l-0.172,-0.062l-0.17,-0.063l-0.17,-0.064l-0.17,-0.067l-0.168,-0.068l-0.167,-0.069l-0.167,-0.072l-0.165,-0.073l-0.165,-0.074l-0.164,-0.077l-0.163,-0.078l-0.161,-0.079l-0.161,-0.081l-0.16,-0.083l-0.16,-0.084l-0.158,-0.086l-0.157,-0.087l-0.156,-0.089l-0.155,-0.091l-0.154,-0.091l-0.153,-0.094l-0.152,-0.095l-0.151,-0.096l-0.15,-0.098l-0.149,-0.1l-0.147,-0.1l-0.147,-0.103l-0.145,-0.103l-0.145,-0.105l-0.143,-0.107l-0.142,-0.108l-0.141,-0.109l-0.14,-0.111l-0.139,-0.112l-0.138,-0.114l-0.136,-0.114l-0.135,-0.117l-0.134,-0.117l-0.133,-0.119l-0.132,-0.12l-0.13,-0.121l-0.129,-0.123l-0.128,-0.124l-0.127,-0.125l-0.125,-0.127l-0.124,-0.128l-0.123,-0.129l-0.122,-0.13l-0.12,-0.132l-0.119,-0.132l-0.118,-0.134l-0.116,-0.135l-0.115,-0.137l-0.113,-0.137l-0.113,-0.139l-0.11,-0.14l-0.11,-0.141l-0.108,-0.142l-0.107,-0.143l-0.105,-0.144l-0.104,-0.146l-0.102,-0.146l-0.101,-0.148l-0.1,-0.149l-0.098,-0.15l-0.096,-0.15l-0.095,-0.152l-0.094,-0.153l-0.092,-0.154l-0.09,-0.155l-0.089,-0.156l-0.088,-0.157l-0.086,-0.158l-0.084,-0.159l-0.083,-0.16l-0.081,-0.161l-0.08,-0.162l-0.078,-0.163l-0.076,-0.163l-0.075,-0.165l-0.073,-0.166l-0.072,-0.166l-0.069,-0.167l-0.069,-0.168l-0.066,-0.169l-0.065,-0.17l-0.063,-0.171l-0.061,-0.172l-0.06,-0.172l-0.058,-0.173l-0.056,-0.174l-0.055,-0.175l-0.052,-0.175l-0.051,-0.177l-0.049,-0.177l-0.047,-0.177l-0.046,-0.179l-0.044,-0.179l-0.041,-0.18l-0.04,-0.181l-0.039,-0.181l-0.036,-0.182l-0.034,-0.182l-0.033,-0.183l-0.03,-0.184l-0.029,-0.185l-0.027,-0.185l-0.025,-0.185l-0.023,-0.186l-0.021,-0.187l-0.019,-0.187l-0.017,-0.188l-0.015,-0.188l-0.013,-0.189l-0.011,-0.189l-0.009,-0.19l-0.008,-0.19l-0.005,-0.191l-0.003,-0.191l-0.001,-0.191l0.001,-0.18l0.003,-0.178l0.004,-0.179l0.007,-0.178l0.008,-0.178l0.009,-0.177l0.012,-0.177l0.013,-0.177l0.015,-0.176l0.017,-0.175l0.018,-0.175l0.02,-0.175l0.022,-0.174l0.024,-0.174l0.025,-0.173l0.027,-0.172l0.028,-0.173l0.031,-0.171l0.032,-0.171l0.033,-0.17l0.035,-0.17l0.037,-0.17l0.039,-0.168l0.04,-0.168l0.041,-0.168l0.043,-0.167l0.045,-0.166l0.047,-0.165l0.048,-0.165l0.049,-0.165l0.051,-0.163l0.053,-0.163l0.054,-0.162l0.055,-0.162l0.058,-0.16l0.058,-0.16l0.06,-0.16l0.062,-0.158l0.063,-0.158l0.065,-0.157l0.066,-0.156l0.067,-0.156l0.069,-0.155l0.07,-0.154l0.072,-0.153l0.073,-0.152l0.075,-0.151l0.076,-0.151l0.077,-0.15l0.079,-0.149l0.08,-0.148l0.082,-0.147l0.082,-0.147l0.085,-0.145l0.085,-0.145l0.087,-0.143l0.088,-0.143l0.09,-0.142l0.09,-0.141l0.092,-0.14l0.094,-0.139l0.094,-0.138l0.096,-0.138l0.097,-0.136l0.099,-0.135l0.099,-0.134l0.101,-0.134l0.102,-0.132l0.103,-0.131l0.105,-0.13l0.106,-0.13l0.106,-0.128l0.109,-0.127l0.109,-0.126l0.11,-0.125l0.112,-0.124l0.112,-0.123l0.114,-0.122l0.115,-0.121l0.116,-0.12l0.118,-0.119l0.118,-0.117l0.119,-0.117l0.121,-0.115l0.121,-0.114l0.123,-0.113l0.124,-0.112l0.125,-0.111l0.126,-0.109l0.126,-0.109l0.128,-0.107l0.129,-0.106l0.13,-0.105l0.131,-0.103l0.132,-0.103l0.133,-0.101l0.134,-0.1l0.135,-0.098l0.136,-0.098l0.137,-0.096l0.138,-0.095l0.139,-0.094l0.14,-0.092l0.141,-0.091l0.141,-0.09l0.143,-0.089l0.143,-0.087l0.145,-0.086l0.145,-0.084l0.146,-0.083l0.147,-0.082l0.148,-0.081l0.149,-0.079l0.149,-0.078l0.151,-0.076l0.151,-0.075l0.152,-0.074l0.153,-0.072l0.153,-0.07l0.155,-0.07l0.155,-0.068l0.156,-0.066l0.157,-0.065l0.158,-0.064l0.158,-0.062l0.159,-0.06l0.16,-0.059l0.147,-0.053l0.172,-0.056l0.176,-0.045l0.177,-0.035l0.18,-0.024l0.181,-0.013l0.181,-0.002l0.181,0.008Z" style="fill:#fff;"/><path d="M64.143,90.526l0.142,0.011l0.142,0.017l0.141,0.023l0.139,0.031l0.138,0.037l0.136,0.043l0.134,0.05l0.131,0.056l0.129,0.063l0.125,0.068l0.122,0.074l0.118,0.08l0.114,0.086l0.111,0.091l0.105,0.096l0.101,0.101l0.096,0.106l0.091,0.11l0.086,0.114l0.08,0.118l0.074,0.122l0.069,0.125l0.062,0.129l0.056,0.131l0.05,0.134l0.043,0.136l0.037,0.138l0.031,0.139l0.023,0.141l0.017,0.142l0.011,0.142l0.003,0.143l0,17l-0.003,0.143l-0.011,0.142l-0.017,0.142l-0.023,0.141l-0.031,0.139l-0.037,0.138l-0.043,0.136l-0.05,0.134l-0.056,0.131l-0.062,0.129l-0.069,0.125l-0.074,0.122l-0.08,0.118l-0.086,0.115l-0.091,0.11l-0.096,0.105l-0.101,0.101l-0.105,0.096l-0.111,0.091l-0.114,0.086l-0.118,0.08l-0.122,0.074l-0.125,0.069l-0.129,0.062l-0.131,0.056l-0.134,0.05l-0.136,0.044l-0.138,0.037l-0.139,0.03l-0.141,0.024l-0.142,0.016l-0.142,0.011l-0.143,0.003l-0.143,-0.003l-0.142,-0.011l-0.142,-0.016l-0.141,-0.024l-0.139,-0.03l-0.138,-0.037l-0.136,-0.044l-0.134,-0.05l-0.131,-0.056l-0.129,-0.062l-0.125,-0.069l-0.122,-0.074l-0.118,-0.08l-0.114,-0.086l-0.111,-0.091l-0.105,-0.096l-0.101,-0.101l-0.096,-0.105l-0.091,-0.11l-0.086,-0.115l-0.08,-0.118l-0.074,-0.122l-0.069,-0.125l-0.062,-0.129l-0.056,-0.131l-0.05,-0.134l-0.043,-0.136l-0.037,-0.138l-0.031,-0.139l-0.023,-0.141l-0.017,-0.142l-0.011,-0.142l-0.003,-0.143l0,-17l0.003,-0.143l0.011,-0.142l0.017,-0.142l0.023,-0.141l0.031,-0.139l0.037,-0.138l0.043,-0.136l0.05,-0.134l0.056,-0.131l0.062,-0.129l0.069,-0.125l0.074,-0.122l0.08,-0.118l0.086,-0.114l0.091,-0.11l0.096,-0.106l0.101,-0.101l0.105,-0.096l0.111,-0.091l0.114,-0.086l0.118,-0.08l0.122,-0.074l0.125,-0.068l0.129,-0.063l0.131,-0.056l0.134,-0.05l0.136,-0.043l0.138,-0.037l0.139,-0.031l0.141,-0.023l0.142,-0.017l0.142,-0.011l0.143,-0.003l0.143,0.003Z" style="fill:#fff;"/><path d="M64.205,14.484l0.204,0.021l0.201,0.035l0.199,0.048l0.196,0.062l0.19,0.075l0.185,0.088l0.179,0.101l0.171,0.112l0.163,0.124l0.155,0.134l0.145,0.145l0.134,0.155l0.124,0.163l0.112,0.171l0.101,0.179l0.088,0.185l0.075,0.19l0.062,0.196l0.048,0.199l0.035,0.201l0.021,0.204l0.007,0.205l0,36.516l-0.007,0.205l-0.021,0.204l-0.035,0.201l-0.048,0.199l-0.062,0.196l-0.075,0.19l-0.088,0.185l-0.101,0.179l-0.112,0.171l-0.124,0.163l-0.134,0.155l-0.145,0.145l-0.155,0.134l-0.163,0.124l-0.171,0.112l-0.179,0.101l-0.185,0.088l-0.19,0.075l-0.196,0.062l-0.199,0.048l-0.201,0.035l-0.204,0.021l-0.205,0.007l-0.205,-0.007l-0.203,-0.021l-0.202,-0.035l-0.199,-0.048l-0.196,-0.062l-0.19,-0.075l-0.185,-0.088l-0.179,-0.101l-0.171,-0.112l-0.163,-0.124l-0.155,-0.134l-0.145,-0.145l-0.134,-0.155l-0.124,-0.163l-0.112,-0.171l-0.101,-0.179l-0.088,-0.185l-0.075,-0.19l-0.062,-0.196l-0.048,-0.199l-0.035,-0.201l-0.021,-0.204l-0.007,-0.205l0,-36.516l0.007,-0.205l0.021,-0.204l0.035,-0.201l0.048,-0.199l0.062,-0.196l0.075,-0.19l0.088,-0.185l0.101,-0.179l0.112,-0.171l0.124,-0.163l0.134,-0.155l0.145,-0.145l0.155,-0.134l0.163,-0.124l0.171,-0.112l0.179,-0.101l0.185,-0.088l0.19,-0.075l0.196,-0.062l0.199,-0.048l0.202,-0.035l0.203,-0.021l0.205,-0.007l0.205,0.007Z" style="fill:#fff;"/><path d="M68.103,57.307l0.181,0.013l0.179,0.023l0.178,0.034l0.176,0.045l0.159,0.046l0.172,0.052l0.172,0.053l0.172,0.055l0.17,0.057l0.17,0.059l0.169,0.06l0.168,0.062l0.167,0.063l0.167,0.065l0.165,0.067l0.165,0.068l0.164,0.07l0.163,0.072l0.162,0.073l0.162,0.075l0.16,0.076l0.16,0.078l0.158,0.079l0.158,0.081l0.157,0.083l0.156,0.084l0.154,0.085l0.154,0.087l0.153,0.089l0.152,0.09l0.151,0.091l0.15,0.093l0.149,0.094l0.148,0.096l0.147,0.097l0.146,0.099l0.144,0.1l0.144,0.101l0.143,0.103l0.142,0.104l0.14,0.105l0.139,0.107l0.139,0.108l0.137,0.11l0.136,0.111l0.135,0.112l0.134,0.113l0.132,0.115l0.132,0.116l0.13,0.117l0.129,0.119l0.128,0.12l0.127,0.121l0.126,0.122l0.124,0.124l0.123,0.125l0.122,0.126l0.12,0.127l0.12,0.128l0.118,0.13l0.117,0.131l0.115,0.132l0.115,0.133l0.113,0.134l0.111,0.135l0.111,0.137l0.109,0.138l0.107,0.138l0.106,0.14l0.105,0.141l0.104,0.142l0.102,0.143l0.101,0.144l0.099,0.146l0.098,0.146l0.097,0.147l0.095,0.148l0.094,0.15l0.092,0.15l0.091,0.151l0.089,0.153l0.088,0.153l0.087,0.154l0.085,0.156l0.083,0.156l0.082,0.157l0.08,0.158l0.079,0.159l0.077,0.16l0.076,0.161l0.074,0.161l0.072,0.163l0.071,0.163l0.07,0.165l0.068,0.165l0.066,0.166l0.064,0.167l0.063,0.167l0.061,0.169l0.06,0.169l0.058,0.17l0.056,0.171l0.054,0.171l0.053,0.173l0.051,0.173l0.049,0.173l0.048,0.175l0.046,0.175l0.044,0.176l0.042,0.176l0.041,0.178l0.038,0.178l0.037,0.178l0.036,0.179l0.033,0.18l0.031,0.18l0.03,0.181l0.028,0.182l0.026,0.182l0.024,0.183l0.022,0.183l0.021,0.184l0.018,0.184l0.017,0.185l0.014,0.185l0.013,0.186l0.011,0.186l0.009,0.187l0.006,0.187l0.005,0.188l0.003,0.188l0.001,0.188l-0.001,0.173l-0.002,0.172l-0.004,0.172l-0.006,0.172l-0.007,0.171l-0.009,0.171l-0.011,0.171l-0.012,0.17l-0.014,0.169l-0.016,0.17l-0.017,0.169l-0.019,0.168l-0.02,0.168l-0.022,0.167l-0.023,0.168l-0.025,0.166l-0.027,0.166l-0.028,0.166l-0.03,0.165l-0.031,0.164l-0.033,0.164l-0.034,0.164l-0.035,0.163l-0.038,0.162l-0.038,0.162l-0.041,0.161l-0.041,0.161l-0.043,0.16l-0.045,0.16l-0.046,0.159l-0.048,0.158l-0.048,0.157l-0.051,0.157l-0.052,0.157l-0.053,0.156l-0.054,0.155l-0.056,0.154l-0.058,0.154l-0.059,0.153l-0.06,0.152l-0.061,0.152l-0.063,0.151l-0.064,0.15l-0.066,0.149l-0.067,0.149l-0.068,0.148l-0.069,0.147l-0.071,0.147l-0.072,0.146l-0.074,0.145l-0.075,0.144l-0.076,0.143l-0.077,0.143l-0.078,0.142l-0.08,0.141l-0.081,0.14l-0.082,0.139l-0.084,0.139l-0.085,0.137l-0.086,0.137l-0.087,0.136l-0.088,0.135l-0.09,0.135l-0.09,0.133l-0.092,0.132l-0.093,0.132l-0.095,0.131l-0.095,0.13l-0.096,0.128l-0.098,0.128l-0.099,0.127l-0.1,0.127l-0.101,0.125l-0.102,0.124l-0.103,0.123l-0.105,0.123l-0.105,0.121l-0.107,0.12l-0.107,0.12l-0.109,0.118l-0.11,0.117l-0.11,0.117l-0.112,0.115l-0.113,0.114l-0.114,0.114l-0.115,0.112l-0.116,0.111l-0.117,0.111l-0.117,0.109l-0.119,0.108l-0.12,0.107l-0.121,0.106l-0.122,0.105l-0.123,0.103l-0.124,0.103l-0.124,0.102l-0.126,0.1l-0.127,0.099l-0.127,0.099l-0.129,0.097l-0.129,0.095l-0.13,0.095l-0.131,0.094l-0.133,0.092l-0.133,0.092l-0.133,0.09l-0.135,0.089l-0.136,0.087l-0.136,0.087l-0.137,0.085l-0.139,0.084l-0.139,0.083l-0.139,0.082l-0.141,0.08l-0.141,0.079l-0.143,0.078l-0.143,0.076l-0.143,0.076l-0.145,0.074l-0.145,0.073l-0.147,0.071l-0.147,0.07l-0.147,0.069l-0.149,0.067l-0.149,0.067l-0.15,0.064l-0.15,0.064l-0.139,0.057l-0.169,0.064l-0.173,0.053l-0.177,0.043l-0.178,0.032l-0.18,0.021l-0.181,0.011l-0.181,-0.001l-0.181,-0.011l-0.18,-0.023l-0.178,-0.033l-0.176,-0.044l-0.172,-0.054l-0.17,-0.065l-0.165,-0.075l-0.16,-0.085l-0.155,-0.094l-0.149,-0.103l-0.142,-0.113l-0.135,-0.12l-0.128,-0.129l-0.12,-0.136l-0.111,-0.143l-0.102,-0.149l-0.094,-0.155l-0.084,-0.161l-0.073,-0.166l-0.064,-0.169l-0.054,-0.173l-0.042,-0.177l-0.032,-0.178l-0.022,-0.18l-0.01,-0.181l0,-0.181l0.012,-0.181l0.022,-0.18l0.033,-0.178l0.044,-0.176l0.055,-0.173l0.065,-0.169l0.074,-0.165l0.085,-0.16l0.094,-0.155l0.104,-0.149l0.112,-0.142l0.121,-0.135l0.128,-0.128l0.136,-0.12l0.143,-0.111l0.15,-0.103l0.155,-0.093l0.161,-0.084l0.165,-0.073l0.113,-0.047l0.099,-0.041l0.098,-0.043l0.099,-0.044l0.097,-0.044l0.098,-0.045l0.096,-0.047l0.097,-0.047l0.095,-0.048l0.096,-0.048l0.095,-0.05l0.094,-0.051l0.094,-0.051l0.093,-0.052l0.093,-0.053l0.092,-0.054l0.092,-0.055l0.091,-0.055l0.091,-0.056l0.09,-0.058l0.089,-0.058l0.089,-0.058l0.089,-0.06l0.087,-0.06l0.088,-0.061l0.087,-0.062l0.086,-0.063l0.085,-0.063l0.085,-0.064l0.085,-0.065l0.083,-0.066l0.083,-0.066l0.083,-0.068l0.082,-0.068l0.081,-0.068l0.081,-0.07l0.08,-0.07l0.079,-0.07l0.079,-0.072l0.078,-0.072l0.077,-0.073l0.077,-0.074l0.076,-0.074l0.075,-0.075l0.075,-0.076l0.074,-0.076l0.073,-0.077l0.073,-0.078l0.072,-0.078l0.071,-0.079l0.071,-0.08l0.07,-0.08l0.069,-0.081l0.068,-0.082l0.068,-0.082l0.066,-0.083l0.066,-0.083l0.066,-0.084l0.064,-0.085l0.064,-0.085l0.063,-0.086l0.063,-0.086l0.061,-0.087l0.061,-0.088l0.06,-0.088l0.059,-0.089l0.058,-0.089l0.058,-0.09l0.057,-0.09l0.055,-0.091l0.056,-0.092l0.054,-0.092l0.053,-0.092l0.053,-0.093l0.052,-0.094l0.051,-0.094l0.05,-0.094l0.049,-0.095l0.048,-0.096l0.048,-0.096l0.047,-0.096l0.045,-0.097l0.045,-0.098l0.044,-0.098l0.044,-0.098l0.042,-0.099l0.041,-0.099l0.041,-0.1l0.039,-0.1l0.039,-0.101l0.038,-0.101l0.037,-0.102l0.035,-0.102l0.035,-0.102l0.034,-0.103l0.034,-0.103l0.032,-0.104l0.031,-0.104l0.03,-0.104l0.03,-0.105l0.028,-0.106l0.027,-0.105l0.027,-0.106l0.025,-0.107l0.025,-0.107l0.023,-0.107l0.023,-0.107l0.021,-0.108l0.021,-0.109l0.019,-0.109l0.019,-0.109l0.017,-0.109l0.017,-0.11l0.015,-0.11l0.015,-0.11l0.013,-0.111l0.012,-0.111l0.012,-0.112l0.01,-0.112l0.009,-0.112l0.008,-0.113l0.007,-0.112l0.006,-0.114l0.005,-0.113l0.004,-0.114l0.003,-0.114l0.002,-0.115l0,-0.114l0,-0.126l-0.002,-0.125l-0.004,-0.124l-0.004,-0.125l-0.006,-0.123l-0.007,-0.124l-0.009,-0.123l-0.009,-0.122l-0.011,-0.122l-0.012,-0.122l-0.014,-0.121l-0.015,-0.121l-0.015,-0.121l-0.018,-0.12l-0.018,-0.12l-0.019,-0.119l-0.021,-0.119l-0.022,-0.118l-0.023,-0.118l-0.025,-0.118l-0.025,-0.117l-0.027,-0.116l-0.028,-0.116l-0.029,-0.116l-0.03,-0.115l-0.031,-0.115l-0.033,-0.114l-0.033,-0.114l-0.035,-0.113l-0.036,-0.113l-0.037,-0.112l-0.038,-0.112l-0.039,-0.111l-0.04,-0.111l-0.041,-0.111l-0.043,-0.109l-0.043,-0.109l-0.045,-0.109l-0.045,-0.108l-0.047,-0.108l-0.048,-0.107l-0.049,-0.106l-0.05,-0.106l-0.051,-0.106l-0.051,-0.104l-0.053,-0.105l-0.054,-0.103l-0.055,-0.103l-0.056,-0.103l-0.057,-0.101l-0.058,-0.101l-0.059,-0.101l-0.06,-0.1l-0.061,-0.099l-0.062,-0.099l-0.063,-0.098l-0.064,-0.097l-0.064,-0.097l-0.066,-0.096l-0.067,-0.095l-0.067,-0.094l-0.069,-0.094l-0.069,-0.094l-0.07,-0.092l-0.072,-0.092l-0.072,-0.091l-0.073,-0.09l-0.074,-0.09l-0.074,-0.089l-0.076,-0.088l-0.076,-0.087l-0.078,-0.087l-0.078,-0.085l-0.079,-0.085l-0.08,-0.085l-0.08,-0.083l-0.082,-0.083l-0.082,-0.081l-0.083,-0.081l-0.084,-0.081l-0.085,-0.079l-0.085,-0.078l-0.087,-0.078l-0.087,-0.077l-0.088,-0.076l-0.088,-0.075l-0.089,-0.074l-0.09,-0.073l-0.091,-0.073l-0.092,-0.071l-0.092,-0.071l-0.093,-0.07l-0.093,-0.069l-0.095,-0.068l-0.095,-0.067l-0.095,-0.066l-0.097,-0.065l-0.097,-0.064l-0.098,-0.063l-0.098,-0.063l-0.099,-0.061l-0.1,-0.06l-0.1,-0.059l-0.101,-0.059l-0.101,-0.057l-0.102,-0.057l-0.103,-0.055l-0.104,-0.054l-0.103,-0.054l-0.105,-0.052l-0.105,-0.051l-0.106,-0.051l-0.106,-0.049l-0.107,-0.048l-0.107,-0.047l-0.108,-0.046l-0.109,-0.045l-0.109,-0.044l-0.109,-0.043l-0.11,-0.042l-0.111,-0.04l-0.111,-0.04l-0.112,-0.038l-0.112,-0.038l-0.112,-0.036l-0.113,-0.035l-0.114,-0.034l-0.129,-0.037l-0.172,-0.056l-0.169,-0.065l-0.165,-0.076l-0.16,-0.086l-0.154,-0.095l-0.148,-0.104l-0.142,-0.113l-0.134,-0.122l-0.127,-0.129l-0.119,-0.137l-0.111,-0.143l-0.101,-0.15l-0.093,-0.156l-0.083,-0.161l-0.073,-0.166l-0.062,-0.17l-0.053,-0.174l-0.042,-0.176l-0.031,-0.179l-0.02,-0.18l-0.009,-0.181l0.001,-0.181l0.013,-0.181l0.023,-0.179l0.034,-0.178l0.045,-0.176l0.056,-0.172l0.066,-0.169l0.075,-0.165l0.086,-0.16l0.095,-0.154l0.104,-0.148l0.113,-0.142l0.122,-0.134l0.129,-0.127l0.137,-0.119l0.143,-0.111l0.15,-0.101l0.156,-0.093l0.161,-0.083l0.166,-0.073l0.17,-0.062l0.174,-0.053l0.176,-0.042l0.179,-0.031l0.18,-0.02l0.181,-0.009l0.181,0.001Z" style="fill:#fff;"/><path d="M60.326,57.251l0.18,0.012l0.18,0.023l0.178,0.033l0.176,0.045l0.173,0.055l0.169,0.065l0.165,0.075l0.16,0.085l0.154,0.095l0.149,0.104l0.142,0.112l0.135,0.121l0.127,0.129l0.119,0.137l0.111,0.143l0.102,0.15l0.093,0.155l0.084,0.161l0.073,0.166l0.063,0.17l0.053,0.173l0.043,0.176l0.031,0.179l0.021,0.18l0.01,0.181l-0.001,0.181l-0.012,0.181l-0.023,0.179l-0.034,0.178l-0.044,0.176l-0.055,0.173l-0.065,0.169l-0.075,0.165l-0.086,0.16l-0.094,0.154l-0.104,0.149l-0.113,0.142l-0.121,0.135l-0.128,0.127l-0.137,0.12l-0.143,0.11l-0.15,0.103l-0.155,0.092l-0.161,0.084l-0.166,0.073l-0.17,0.063l-0.173,0.053l-0.131,0.036l-0.116,0.033l-0.115,0.034l-0.114,0.035l-0.114,0.036l-0.114,0.038l-0.113,0.038l-0.112,0.04l-0.112,0.041l-0.112,0.041l-0.111,0.043l-0.11,0.045l-0.11,0.045l-0.109,0.046l-0.109,0.047l-0.108,0.049l-0.108,0.049l-0.106,0.051l-0.107,0.052l-0.106,0.052l-0.105,0.054l-0.104,0.055l-0.104,0.056l-0.104,0.056l-0.103,0.058l-0.102,0.059l-0.101,0.06l-0.101,0.061l-0.1,0.062l-0.1,0.063l-0.098,0.064l-0.099,0.064l-0.097,0.066l-0.097,0.067l-0.096,0.068l-0.095,0.068l-0.095,0.07l-0.094,0.07l-0.093,0.072l-0.093,0.072l-0.091,0.073l-0.091,0.075l-0.09,0.075l-0.09,0.076l-0.089,0.077l-0.088,0.077l-0.087,0.079l-0.086,0.079l-0.086,0.081l-0.084,0.081l-0.084,0.082l-0.083,0.083l-0.083,0.083l-0.081,0.085l-0.081,0.085l-0.079,0.086l-0.079,0.087l-0.078,0.088l-0.077,0.088l-0.076,0.09l-0.076,0.09l-0.074,0.09l-0.074,0.092l-0.072,0.092l-0.072,0.093l-0.071,0.094l-0.07,0.094l-0.069,0.095l-0.068,0.096l-0.067,0.097l-0.066,0.097l-0.065,0.098l-0.064,0.099l-0.063,0.099l-0.062,0.1l-0.062,0.101l-0.06,0.101l-0.059,0.102l-0.058,0.102l-0.057,0.104l-0.056,0.103l-0.055,0.105l-0.054,0.105l-0.053,0.105l-0.052,0.107l-0.051,0.107l-0.05,0.107l-0.049,0.108l-0.048,0.108l-0.046,0.109l-0.046,0.11l-0.044,0.11l-0.043,0.111l-0.043,0.111l-0.041,0.112l-0.04,0.113l-0.039,0.112l-0.037,0.114l-0.037,0.114l-0.035,0.114l-0.035,0.115l-0.033,0.115l-0.032,0.116l-0.03,0.116l-0.03,0.117l-0.029,0.118l-0.027,0.117l-0.026,0.119l-0.025,0.118l-0.023,0.119l-0.023,0.12l-0.021,0.12l-0.02,0.121l-0.019,0.12l-0.017,0.122l-0.016,0.122l-0.015,0.122l-0.014,0.122l-0.013,0.124l-0.011,0.123l-0.01,0.124l-0.008,0.124l-0.008,0.125l-0.006,0.125l-0.004,0.125l-0.004,0.126l-0.002,0.127l0,0.127l0,0.119l0.002,0.119l0.003,0.119l0.004,0.119l0.006,0.118l0.006,0.118l0.008,0.118l0.009,0.117l0.01,0.116l0.011,0.117l0.012,0.116l0.013,0.116l0.015,0.115l0.016,0.115l0.016,0.114l0.018,0.115l0.019,0.113l0.02,0.114l0.021,0.113l0.023,0.112l0.023,0.112l0.024,0.112l0.026,0.112l0.026,0.11l0.028,0.111l0.029,0.11l0.029,0.11l0.031,0.109l0.032,0.109l0.033,0.108l0.033,0.108l0.035,0.107l0.036,0.107l0.037,0.107l0.038,0.106l0.039,0.106l0.039,0.105l0.041,0.104l0.042,0.105l0.043,0.103l0.044,0.103l0.044,0.103l0.046,0.102l0.047,0.102l0.047,0.101l0.049,0.101l0.049,0.1l0.051,0.099l0.051,0.099l0.052,0.099l0.054,0.098l0.054,0.097l0.055,0.097l0.056,0.096l0.056,0.096l0.058,0.095l0.059,0.094l0.059,0.094l0.061,0.094l0.061,0.092l0.062,0.093l0.063,0.091l0.064,0.091l0.064,0.09l0.066,0.09l0.066,0.089l0.067,0.088l0.068,0.088l0.069,0.087l0.07,0.086l0.07,0.086l0.071,0.085l0.072,0.084l0.073,0.084l0.073,0.083l0.075,0.082l0.075,0.081l0.076,0.081l0.076,0.08l0.078,0.079l0.078,0.079l0.079,0.078l0.079,0.077l0.081,0.076l0.081,0.076l0.081,0.075l0.083,0.074l0.083,0.073l0.084,0.073l0.084,0.072l0.086,0.071l0.085,0.07l0.087,0.069l0.087,0.068l0.088,0.068l0.089,0.067l0.089,0.066l0.09,0.065l0.09,0.065l0.091,0.063l0.092,0.063l0.092,0.062l0.093,0.061l0.094,0.06l0.094,0.059l0.094,0.058l0.096,0.058l0.096,0.056l0.096,0.056l0.097,0.054l0.098,0.054l0.098,0.053l0.098,0.052l0.1,0.051l0.099,0.05l0.1,0.049l0.101,0.049l0.102,0.047l0.101,0.046l0.103,0.046l0.103,0.044l0.103,0.044l0.104,0.042l0.104,0.042l0.105,0.04l0.105,0.04l0.106,0.038l0.12,0.043l0.169,0.065l0.165,0.076l0.159,0.085l0.155,0.095l0.148,0.104l0.142,0.113l0.135,0.121l0.127,0.129l0.119,0.136l0.111,0.144l0.102,0.15l0.092,0.156l0.083,0.161l0.074,0.165l0.063,0.17l0.052,0.174l0.042,0.176l0.032,0.178l0.02,0.181l0.01,0.18l-0.001,0.182l-0.013,0.181l-0.023,0.179l-0.034,0.178l-0.044,0.176l-0.056,0.172l-0.065,0.169l-0.076,0.165l-0.085,0.16l-0.095,0.154l-0.104,0.149l-0.113,0.142l-0.121,0.134l-0.129,0.128l-0.137,0.119l-0.143,0.11l-0.15,0.102l-0.156,0.093l-0.161,0.083l-0.166,0.073l-0.169,0.063l-0.174,0.053l-0.176,0.042l-0.179,0.031l-0.18,0.021l-0.181,0.009l-0.181,-0.001l-0.181,-0.012l-0.179,-0.023l-0.178,-0.034l-0.176,-0.045l-0.173,-0.055l-0.147,-0.052l-0.161,-0.059l-0.16,-0.06l-0.159,-0.062l-0.159,-0.063l-0.158,-0.064l-0.157,-0.066l-0.156,-0.068l-0.155,-0.069l-0.155,-0.07l-0.154,-0.072l-0.153,-0.073l-0.152,-0.075l-0.151,-0.076l-0.151,-0.077l-0.15,-0.079l-0.148,-0.08l-0.148,-0.082l-0.147,-0.083l-0.146,-0.084l-0.146,-0.086l-0.144,-0.087l-0.143,-0.088l-0.143,-0.09l-0.142,-0.091l-0.14,-0.092l-0.14,-0.093l-0.139,-0.095l-0.137,-0.096l-0.137,-0.098l-0.136,-0.098l-0.135,-0.1l-0.134,-0.101l-0.133,-0.103l-0.132,-0.103l-0.13,-0.105l-0.13,-0.106l-0.129,-0.107l-0.128,-0.109l-0.127,-0.109l-0.125,-0.111l-0.125,-0.112l-0.123,-0.113l-0.123,-0.114l-0.121,-0.116l-0.12,-0.116l-0.119,-0.118l-0.118,-0.118l-0.117,-0.12l-0.116,-0.121l-0.114,-0.122l-0.114,-0.123l-0.112,-0.125l-0.111,-0.125l-0.11,-0.126l-0.109,-0.128l-0.108,-0.128l-0.106,-0.13l-0.105,-0.13l-0.104,-0.132l-0.103,-0.132l-0.102,-0.134l-0.1,-0.134l-0.099,-0.136l-0.098,-0.136l-0.096,-0.138l-0.095,-0.138l-0.094,-0.14l-0.093,-0.14l-0.091,-0.141l-0.091,-0.142l-0.088,-0.144l-0.088,-0.144l-0.086,-0.145l-0.085,-0.146l-0.083,-0.146l-0.082,-0.148l-0.081,-0.148l-0.079,-0.15l-0.078,-0.15l-0.076,-0.151l-0.075,-0.152l-0.074,-0.153l-0.072,-0.153l-0.071,-0.155l-0.07,-0.155l-0.068,-0.156l-0.066,-0.156l-0.065,-0.158l-0.064,-0.158l-0.062,-0.159l-0.06,-0.16l-0.059,-0.161l-0.058,-0.161l-0.056,-0.162l-0.054,-0.163l-0.053,-0.163l-0.052,-0.164l-0.05,-0.165l-0.048,-0.165l-0.047,-0.166l-0.045,-0.167l-0.043,-0.168l-0.042,-0.168l-0.041,-0.168l-0.038,-0.169l-0.037,-0.17l-0.036,-0.171l-0.034,-0.171l-0.032,-0.171l-0.03,-0.173l-0.029,-0.172l-0.027,-0.173l-0.025,-0.174l-0.024,-0.175l-0.022,-0.174l-0.021,-0.176l-0.018,-0.175l-0.017,-0.177l-0.015,-0.176l-0.013,-0.177l-0.012,-0.178l-0.01,-0.178l-0.008,-0.178l-0.006,-0.179l-0.005,-0.179l-0.002,-0.18l-0.001,-0.18l0.001,-0.19l0.003,-0.19l0.005,-0.19l0.007,-0.189l0.009,-0.189l0.011,-0.188l0.013,-0.188l0.015,-0.187l0.017,-0.187l0.019,-0.186l0.02,-0.186l0.023,-0.185l0.025,-0.185l0.026,-0.184l0.029,-0.184l0.03,-0.182l0.032,-0.183l0.034,-0.181l0.036,-0.181l0.038,-0.181l0.04,-0.179l0.041,-0.179l0.043,-0.179l0.045,-0.177l0.047,-0.177l0.049,-0.177l0.05,-0.175l0.052,-0.175l0.054,-0.174l0.056,-0.173l0.057,-0.172l0.059,-0.172l0.061,-0.171l0.062,-0.17l0.065,-0.169l0.065,-0.168l0.068,-0.168l0.069,-0.166l0.071,-0.166l0.072,-0.165l0.074,-0.164l0.076,-0.163l0.077,-0.162l0.079,-0.161l0.081,-0.16l0.082,-0.16l0.083,-0.158l0.085,-0.158l0.087,-0.156l0.088,-0.155l0.09,-0.155l0.091,-0.153l0.093,-0.153l0.094,-0.151l0.095,-0.151l0.097,-0.149l0.099,-0.148l0.1,-0.147l0.101,-0.146l0.103,-0.146l0.104,-0.143l0.106,-0.143l0.107,-0.142l0.109,-0.141l0.109,-0.139l0.112,-0.139l0.112,-0.137l0.114,-0.136l0.115,-0.135l0.117,-0.133l0.118,-0.133l0.119,-0.131l0.12,-0.13l0.122,-0.129l0.123,-0.128l0.124,-0.126l0.126,-0.125l0.126,-0.124l0.128,-0.123l0.129,-0.121l0.131,-0.12l0.132,-0.119l0.132,-0.117l0.134,-0.116l0.136,-0.115l0.136,-0.114l0.137,-0.112l0.139,-0.11l0.14,-0.11l0.141,-0.108l0.142,-0.107l0.143,-0.105l0.144,-0.104l0.146,-0.102l0.146,-0.101l0.148,-0.1l0.148,-0.098l0.15,-0.096l0.151,-0.096l0.151,-0.093l0.153,-0.093l0.154,-0.09l0.155,-0.09l0.155,-0.087l0.157,-0.087l0.158,-0.084l0.158,-0.083l0.16,-0.082l0.16,-0.08l0.162,-0.078l0.162,-0.077l0.164,-0.075l0.164,-0.074l0.165,-0.072l0.166,-0.07l0.167,-0.069l0.168,-0.067l0.168,-0.065l0.17,-0.064l0.17,-0.062l0.171,-0.06l0.172,-0.059l0.172,-0.056l0.174,-0.056l0.174,-0.053l0.175,-0.052l0.176,-0.049l0.161,-0.044l0.176,-0.043l0.178,-0.031l0.18,-0.021l0.181,-0.01l0.182,0.001Z" style="fill:#fff;"/><path d="M100.347,14.484l0.136,0.012l0.136,0.019l0.134,0.025l0.133,0.03l0.131,0.037l0.13,0.043l0.128,0.049l0.125,0.054l0.123,0.06l0.119,0.066l0.117,0.071l0.114,0.076l0.109,0.081l0.106,0.086l0.102,0.091l0.098,0.096l0.093,0.1l0.089,0.104l0.083,0.108l0.079,0.111l0.074,0.115l0.068,0.118l0.063,0.122l0.057,0.124l0.052,0.126l0.045,0.129l0.04,0.131l0.034,0.132l0.028,0.134l0.022,0.134l0.015,0.136l0.009,0.136l0.003,0.137l0,16l-0.003,0.136l-0.009,0.137l-0.015,0.135l-0.022,0.135l-0.028,0.134l-0.034,0.132l-0.04,0.131l-0.045,0.129l-0.052,0.126l-0.057,0.124l-0.063,0.121l-0.068,0.119l-0.074,0.115l-0.079,0.111l-0.083,0.108l-0.089,0.104l-0.093,0.1l-0.098,0.095l-0.102,0.091l-0.106,0.087l-0.109,0.081l-0.114,0.076l-0.117,0.071l-0.119,0.066l-0.123,0.06l-0.125,0.054l-0.128,0.049l-0.13,0.042l-0.131,0.037l-0.133,0.031l-0.134,0.025l-0.136,0.018l-0.136,0.013l-0.136,0.006l-0.137,0l-0.136,-0.006l-0.136,-0.013l-0.136,-0.018l-0.134,-0.025l-0.133,-0.031l-0.131,-0.037l-0.13,-0.042l-0.128,-0.049l-0.125,-0.054l-0.123,-0.06l-0.12,-0.066l-0.116,-0.071l-0.114,-0.076l-0.109,-0.081l-0.106,-0.087l-0.102,-0.091l-0.098,-0.095l-0.093,-0.1l-0.089,-0.104l-0.083,-0.108l-0.079,-0.111l-0.074,-0.115l-0.068,-0.119l-0.063,-0.121l-0.057,-0.124l-0.052,-0.126l-0.045,-0.129l-0.04,-0.131l-0.034,-0.132l-0.028,-0.134l-0.022,-0.135l-0.015,-0.135l-0.009,-0.137l-0.004,-0.136l0,-16l0.004,-0.137l0.009,-0.136l0.015,-0.136l0.022,-0.134l0.028,-0.134l0.034,-0.132l0.04,-0.131l0.045,-0.129l0.052,-0.126l0.057,-0.124l0.063,-0.122l0.068,-0.118l0.074,-0.115l0.079,-0.111l0.083,-0.108l0.089,-0.104l0.093,-0.1l0.098,-0.096l0.102,-0.091l0.106,-0.086l0.109,-0.081l0.114,-0.076l0.116,-0.071l0.12,-0.066l0.123,-0.06l0.125,-0.054l0.128,-0.049l0.13,-0.043l0.131,-0.037l0.133,-0.03l0.134,-0.025l0.136,-0.019l0.136,-0.012l0.136,-0.006l0.137,0l0.136,0.006Z" style="fill:#fff;"/><path d="M100.456,70.023l0.207,0.03l0.205,0.043l0.202,0.058l0.196,0.071l0.192,0.086l0.184,0.098l0.178,0.111l0.169,0.123l0.161,0.135l0.15,0.145l0.141,0.156l0.129,0.165l0.117,0.173l0.104,0.182l0.092,0.188l0.079,0.194l0.064,0.199l0.051,0.203l0.036,0.206l0.022,0.209l0.007,0.209l0,37.516l-0.007,0.209l-0.022,0.209l-0.036,0.206l-0.051,0.203l-0.064,0.199l-0.079,0.194l-0.092,0.189l-0.104,0.181l-0.117,0.173l-0.129,0.165l-0.141,0.156l-0.15,0.146l-0.161,0.134l-0.169,0.123l-0.178,0.111l-0.184,0.098l-0.192,0.086l-0.196,0.071l-0.202,0.058l-0.205,0.044l-0.207,0.029l-0.209,0.014l-0.209,0l-0.209,-0.014l-0.207,-0.029l-0.205,-0.044l-0.202,-0.058l-0.196,-0.071l-0.192,-0.086l-0.185,-0.098l-0.177,-0.111l-0.17,-0.123l-0.16,-0.134l-0.151,-0.146l-0.14,-0.156l-0.129,-0.165l-0.117,-0.173l-0.104,-0.181l-0.092,-0.189l-0.079,-0.194l-0.064,-0.199l-0.051,-0.203l-0.036,-0.206l-0.022,-0.209l-0.008,-0.209l0,-37.516l0.008,-0.209l0.022,-0.209l0.036,-0.206l0.051,-0.203l0.064,-0.199l0.079,-0.194l0.092,-0.188l0.104,-0.182l0.117,-0.173l0.129,-0.165l0.14,-0.156l0.151,-0.145l0.16,-0.135l0.17,-0.123l0.177,-0.111l0.185,-0.098l0.192,-0.086l0.196,-0.071l0.202,-0.058l0.205,-0.043l0.207,-0.03l0.209,-0.014l0.209,0l0.209,0.014Z" style="fill:#fff;"/><path d="M104.69,36.624l0.181,0.017l0.179,0.028l0.177,0.039l0.174,0.049l0.154,0.049l0.167,0.055l0.167,0.057l0.166,0.058l0.165,0.059l0.165,0.062l0.163,0.063l0.163,0.064l0.162,0.066l0.161,0.068l0.161,0.069l0.159,0.071l0.159,0.072l0.158,0.073l0.157,0.076l0.156,0.076l0.155,0.078l0.155,0.08l0.153,0.081l0.153,0.083l0.151,0.084l0.151,0.085l0.15,0.087l0.149,0.088l0.147,0.09l0.147,0.091l0.146,0.092l0.145,0.094l0.144,0.095l0.143,0.097l0.142,0.098l0.141,0.099l0.14,0.101l0.139,0.101l0.138,0.104l0.136,0.104l0.136,0.106l0.135,0.107l0.133,0.108l0.133,0.11l0.131,0.111l0.131,0.112l0.129,0.113l0.128,0.115l0.127,0.116l0.126,0.117l0.124,0.118l0.124,0.12l0.122,0.12l0.121,0.122l0.12,0.123l0.119,0.124l0.118,0.125l0.116,0.127l0.115,0.127l0.114,0.129l0.113,0.13l0.111,0.131l0.11,0.132l0.109,0.133l0.108,0.134l0.106,0.135l0.106,0.136l0.103,0.138l0.103,0.138l0.101,0.14l0.1,0.14l0.098,0.142l0.098,0.142l0.095,0.144l0.095,0.144l0.093,0.146l0.092,0.146l0.09,0.148l0.089,0.148l0.087,0.149l0.086,0.151l0.085,0.151l0.083,0.152l0.082,0.153l0.08,0.154l0.079,0.155l0.078,0.156l0.075,0.156l0.075,0.157l0.073,0.159l0.071,0.159l0.07,0.16l0.068,0.161l0.067,0.161l0.065,0.163l0.064,0.163l0.062,0.164l0.06,0.165l0.059,0.166l0.057,0.166l0.056,0.167l0.054,0.168l0.052,0.168l0.051,0.17l0.049,0.17l0.048,0.17l0.045,0.172l0.045,0.172l0.042,0.172l0.041,0.174l0.039,0.174l0.037,0.174l0.035,0.175l0.034,0.176l0.032,0.177l0.031,0.177l0.028,0.177l0.027,0.178l0.025,0.179l0.023,0.179l0.021,0.18l0.02,0.18l0.018,0.181l0.015,0.181l0.015,0.182l0.012,0.182l0.01,0.183l0.009,0.182l0.006,0.184l0.005,0.184l0.003,0.184l0.001,0.185l-0.001,0.189l-0.003,0.189l-0.005,0.189l-0.007,0.188l-0.009,0.188l-0.011,0.187l-0.013,0.187l-0.015,0.187l-0.016,0.185l-0.019,0.186l-0.021,0.184l-0.022,0.185l-0.025,0.184l-0.026,0.183l-0.028,0.182l-0.03,0.182l-0.032,0.182l-0.034,0.18l-0.035,0.181l-0.037,0.179l-0.04,0.179l-0.041,0.178l-0.042,0.178l-0.045,0.176l-0.046,0.176l-0.049,0.176l-0.049,0.175l-0.052,0.173l-0.053,0.174l-0.056,0.172l-0.056,0.172l-0.059,0.17l-0.06,0.171l-0.062,0.169l-0.063,0.168l-0.066,0.168l-0.066,0.167l-0.069,0.165l-0.07,0.165l-0.072,0.165l-0.073,0.163l-0.075,0.162l-0.076,0.162l-0.079,0.16l-0.079,0.16l-0.081,0.159l-0.083,0.158l-0.084,0.157l-0.086,0.155l-0.088,0.155l-0.088,0.154l-0.091,0.153l-0.091,0.152l-0.094,0.151l-0.094,0.15l-0.097,0.149l-0.097,0.148l-0.099,0.146l-0.101,0.146l-0.102,0.145l-0.103,0.143l-0.105,0.143l-0.106,0.141l-0.107,0.14l-0.109,0.139l-0.11,0.138l-0.111,0.137l-0.113,0.136l-0.114,0.134l-0.116,0.134l-0.117,0.132l-0.118,0.131l-0.119,0.13l-0.121,0.129l-0.121,0.127l-0.124,0.126l-0.124,0.125l-0.125,0.124l-0.127,0.122l-0.128,0.122l-0.13,0.12l-0.13,0.118l-0.132,0.118l-0.132,0.116l-0.134,0.115l-0.136,0.113l-0.136,0.112l-0.137,0.111l-0.139,0.11l-0.14,0.108l-0.14,0.106l-0.142,0.106l-0.143,0.104l-0.144,0.102l-0.145,0.102l-0.147,0.099l-0.147,0.099l-0.148,0.097l-0.15,0.095l-0.15,0.094l-0.152,0.093l-0.152,0.091l-0.153,0.089l-0.155,0.088l-0.155,0.087l-0.156,0.085l-0.158,0.083l-0.158,0.082l-0.159,0.081l-0.16,0.079l-0.161,0.077l-0.162,0.076l-0.163,0.074l-0.164,0.072l-0.165,0.071l-0.165,0.07l-0.166,0.067l-0.168,0.066l-0.168,0.065l-0.168,0.062l-0.17,0.061l-0.171,0.06l-0.171,0.057l-0.172,0.056l-0.172,0.055l-0.174,0.052l-0.174,0.051l-0.16,0.045l-0.176,0.043l-0.179,0.033l-0.179,0.022l-0.181,0.011l-0.182,0l-0.18,-0.01l-0.18,-0.022l-0.179,-0.032l-0.176,-0.044l-0.173,-0.053l-0.169,-0.064l-0.166,-0.075l-0.16,-0.084l-0.155,-0.093l-0.15,-0.103l-0.142,-0.112l-0.136,-0.12l-0.128,-0.128l-0.121,-0.135l-0.112,-0.143l-0.103,-0.149l-0.094,-0.155l-0.084,-0.16l-0.075,-0.165l-0.064,-0.169l-0.054,-0.173l-0.044,-0.176l-0.033,-0.179l-0.022,-0.179l-0.011,-0.181l0,-0.181l0.011,-0.181l0.021,-0.18l0.033,-0.179l0.043,-0.176l0.054,-0.173l0.064,-0.169l0.074,-0.166l0.084,-0.16l0.094,-0.155l0.102,-0.15l0.112,-0.142l0.12,-0.136l0.128,-0.128l0.135,-0.121l0.143,-0.112l0.149,-0.103l0.155,-0.094l0.16,-0.084l0.165,-0.075l0.17,-0.064l0.173,-0.054l0.13,-0.037l0.114,-0.033l0.114,-0.034l0.114,-0.036l0.113,-0.037l0.113,-0.038l0.112,-0.039l0.112,-0.04l0.111,-0.041l0.11,-0.043l0.11,-0.043l0.11,-0.045l0.109,-0.045l0.108,-0.047l0.108,-0.048l0.107,-0.048l0.107,-0.05l0.106,-0.051l0.105,-0.052l0.105,-0.053l0.104,-0.054l0.104,-0.055l0.103,-0.056l0.103,-0.058l0.102,-0.058l0.101,-0.059l0.1,-0.06l0.1,-0.061l0.1,-0.062l0.098,-0.063l0.098,-0.064l0.098,-0.065l0.096,-0.066l0.096,-0.067l0.095,-0.068l0.095,-0.068l0.094,-0.07l0.093,-0.071l0.092,-0.071l0.092,-0.073l0.091,-0.073l0.09,-0.074l0.089,-0.075l0.089,-0.076l0.088,-0.077l0.087,-0.078l0.087,-0.078l0.085,-0.08l0.085,-0.08l0.084,-0.081l0.083,-0.082l0.082,-0.083l0.082,-0.083l0.08,-0.085l0.08,-0.085l0.079,-0.086l0.078,-0.086l0.078,-0.088l0.076,-0.088l0.076,-0.089l0.074,-0.09l0.074,-0.091l0.073,-0.091l0.072,-0.092l0.071,-0.093l0.07,-0.093l0.069,-0.094l0.068,-0.095l0.068,-0.096l0.066,-0.096l0.066,-0.097l0.064,-0.098l0.064,-0.098l0.062,-0.099l0.062,-0.1l0.06,-0.1l0.06,-0.101l0.058,-0.101l0.058,-0.103l0.057,-0.102l0.055,-0.104l0.055,-0.104l0.053,-0.104l0.053,-0.106l0.051,-0.105l0.051,-0.107l0.049,-0.107l0.048,-0.107l0.048,-0.108l0.046,-0.109l0.045,-0.109l0.044,-0.11l0.043,-0.11l0.041,-0.111l0.041,-0.111l0.04,-0.112l0.038,-0.112l0.038,-0.113l0.036,-0.114l0.035,-0.114l0.034,-0.114l0.033,-0.115l0.031,-0.115l0.031,-0.116l0.029,-0.116l0.028,-0.117l0.027,-0.117l0.026,-0.118l0.025,-0.118l0.023,-0.119l0.022,-0.119l0.021,-0.119l0.02,-0.12l0.018,-0.12l0.018,-0.121l0.016,-0.121l0.015,-0.122l0.013,-0.122l0.013,-0.122l0.011,-0.123l0.009,-0.123l0.009,-0.124l0.007,-0.124l0.006,-0.125l0.005,-0.124l0.003,-0.126l0.002,-0.125l0.001,-0.126l-0.001,-0.123l-0.002,-0.123l-0.003,-0.122l-0.004,-0.121l-0.006,-0.122l-0.007,-0.121l-0.008,-0.12l-0.009,-0.12l-0.011,-0.12l-0.011,-0.119l-0.013,-0.119l-0.014,-0.119l-0.016,-0.118l-0.016,-0.118l-0.018,-0.117l-0.019,-0.117l-0.02,-0.117l-0.021,-0.116l-0.022,-0.116l-0.023,-0.115l-0.025,-0.115l-0.025,-0.114l-0.027,-0.115l-0.028,-0.113l-0.029,-0.113l-0.03,-0.113l-0.031,-0.112l-0.033,-0.112l-0.033,-0.111l-0.035,-0.111l-0.035,-0.11l-0.037,-0.11l-0.037,-0.11l-0.039,-0.109l-0.04,-0.108l-0.041,-0.108l-0.041,-0.107l-0.043,-0.107l-0.044,-0.107l-0.045,-0.106l-0.046,-0.105l-0.047,-0.105l-0.048,-0.104l-0.049,-0.104l-0.05,-0.103l-0.051,-0.102l-0.052,-0.102l-0.053,-0.102l-0.054,-0.101l-0.055,-0.1l-0.056,-0.1l-0.056,-0.099l-0.058,-0.099l-0.059,-0.098l-0.06,-0.097l-0.06,-0.097l-0.062,-0.096l-0.062,-0.095l-0.063,-0.095l-0.064,-0.094l-0.066,-0.094l-0.066,-0.092l-0.066,-0.093l-0.068,-0.091l-0.069,-0.091l-0.069,-0.09l-0.071,-0.09l-0.071,-0.088l-0.072,-0.088l-0.073,-0.088l-0.074,-0.086l-0.074,-0.086l-0.076,-0.085l-0.076,-0.085l-0.077,-0.084l-0.078,-0.083l-0.078,-0.082l-0.08,-0.081l-0.08,-0.081l-0.081,-0.08l-0.082,-0.079l-0.082,-0.078l-0.084,-0.077l-0.084,-0.077l-0.084,-0.076l-0.086,-0.075l-0.086,-0.074l-0.087,-0.073l-0.088,-0.073l-0.088,-0.072l-0.089,-0.071l-0.09,-0.07l-0.091,-0.069l-0.091,-0.068l-0.092,-0.067l-0.092,-0.067l-0.093,-0.065l-0.094,-0.065l-0.094,-0.064l-0.096,-0.063l-0.095,-0.062l-0.097,-0.061l-0.097,-0.06l-0.097,-0.059l-0.098,-0.058l-0.099,-0.058l-0.1,-0.056l-0.1,-0.055l-0.1,-0.055l-0.101,-0.053l-0.102,-0.053l-0.103,-0.051l-0.102,-0.051l-0.104,-0.049l-0.104,-0.049l-0.104,-0.047l-0.105,-0.047l-0.106,-0.045l-0.106,-0.045l-0.107,-0.043l-0.107,-0.043l-0.107,-0.041l-0.109,-0.04l-0.108,-0.04l-0.109,-0.038l-0.11,-0.037l-0.11,-0.036l-0.125,-0.04l-0.171,-0.06l-0.167,-0.07l-0.163,-0.08l-0.157,-0.09l-0.152,-0.099l-0.145,-0.108l-0.139,-0.117l-0.131,-0.124l-0.124,-0.133l-0.115,-0.14l-0.107,-0.146l-0.098,-0.153l-0.088,-0.158l-0.078,-0.163l-0.069,-0.168l-0.058,-0.172l-0.048,-0.175l-0.037,-0.177l-0.027,-0.179l-0.015,-0.181l-0.005,-0.181l0.006,-0.181l0.018,-0.18l0.028,-0.179l0.039,-0.177l0.049,-0.175l0.06,-0.171l0.07,-0.167l0.08,-0.162l0.09,-0.158l0.099,-0.152l0.108,-0.145l0.117,-0.139l0.125,-0.131l0.132,-0.124l0.14,-0.115l0.147,-0.107l0.152,-0.097l0.159,-0.089l0.163,-0.078l0.168,-0.069l0.171,-0.058l0.175,-0.048l0.177,-0.037l0.18,-0.026l0.18,-0.016l0.181,-0.005l0.181,0.007Z" style="fill:#fff;"/><path d="M96.506,36.446l0.181,0.013l0.18,0.023l0.178,0.034l0.176,0.045l0.172,0.055l0.169,0.066l0.165,0.075l0.159,0.086l0.155,0.095l0.148,0.104l0.142,0.113l0.135,0.121l0.127,0.129l0.119,0.137l0.11,0.143l0.102,0.15l0.093,0.156l0.083,0.161l0.073,0.166l0.063,0.17l0.052,0.174l0.042,0.176l0.031,0.178l0.021,0.18l0.009,0.181l-0.001,0.182l-0.013,0.18l-0.023,0.18l-0.034,0.178l-0.045,0.176l-0.055,0.172l-0.066,0.169l-0.075,0.165l-0.086,0.16l-0.095,0.154l-0.104,0.148l-0.113,0.142l-0.121,0.135l-0.129,0.127l-0.137,0.119l-0.143,0.11l-0.15,0.102l-0.156,0.093l-0.161,0.083l-0.166,0.073l-0.17,0.063l-0.174,0.052l-0.131,0.036l-0.116,0.032l-0.115,0.034l-0.115,0.035l-0.114,0.036l-0.114,0.037l-0.113,0.039l-0.113,0.039l-0.112,0.041l-0.112,0.041l-0.111,0.043l-0.111,0.044l-0.11,0.045l-0.11,0.046l-0.109,0.048l-0.108,0.048l-0.108,0.049l-0.107,0.051l-0.107,0.051l-0.106,0.053l-0.105,0.054l-0.105,0.054l-0.105,0.056l-0.103,0.057l-0.103,0.058l-0.103,0.058l-0.101,0.06l-0.101,0.061l-0.101,0.062l-0.1,0.063l-0.099,0.064l-0.098,0.064l-0.098,0.066l-0.097,0.067l-0.096,0.067l-0.096,0.069l-0.095,0.07l-0.094,0.07l-0.094,0.071l-0.092,0.073l-0.092,0.073l-0.092,0.074l-0.09,0.075l-0.09,0.076l-0.089,0.077l-0.088,0.078l-0.087,0.079l-0.087,0.079l-0.086,0.08l-0.085,0.082l-0.084,0.082l-0.083,0.083l-0.083,0.083l-0.081,0.085l-0.081,0.085l-0.08,0.086l-0.079,0.087l-0.079,0.088l-0.077,0.088l-0.076,0.09l-0.076,0.09l-0.075,0.091l-0.073,0.091l-0.073,0.093l-0.072,0.093l-0.071,0.094l-0.07,0.094l-0.069,0.095l-0.069,0.096l-0.067,0.097l-0.066,0.097l-0.065,0.098l-0.065,0.099l-0.063,0.099l-0.062,0.101l-0.062,0.1l-0.06,0.102l-0.059,0.102l-0.059,0.102l-0.057,0.104l-0.056,0.104l-0.056,0.104l-0.054,0.105l-0.053,0.106l-0.052,0.106l-0.051,0.107l-0.05,0.108l-0.049,0.108l-0.048,0.109l-0.047,0.109l-0.045,0.11l-0.045,0.11l-0.043,0.111l-0.043,0.111l-0.041,0.112l-0.04,0.113l-0.039,0.113l-0.038,0.113l-0.037,0.114l-0.035,0.115l-0.035,0.115l-0.033,0.116l-0.032,0.116l-0.031,0.116l-0.029,0.117l-0.029,0.118l-0.027,0.118l-0.026,0.118l-0.025,0.119l-0.024,0.119l-0.023,0.12l-0.021,0.12l-0.02,0.121l-0.019,0.121l-0.017,0.122l-0.017,0.122l-0.015,0.122l-0.013,0.123l-0.013,0.123l-0.011,0.124l-0.01,0.124l-0.009,0.124l-0.007,0.125l-0.006,0.126l-0.005,0.125l-0.003,0.126l-0.002,0.127l-0.001,0.127l0.001,0.123l0.002,0.122l0.003,0.122l0.004,0.122l0.006,0.121l0.007,0.121l0.008,0.121l0.009,0.12l0.011,0.12l0.011,0.12l0.013,0.119l0.015,0.118l0.015,0.119l0.016,0.118l0.018,0.117l0.019,0.117l0.02,0.117l0.021,0.116l0.022,0.116l0.024,0.115l0.024,0.115l0.026,0.115l0.027,0.114l0.028,0.113l0.029,0.114l0.03,0.112l0.031,0.113l0.032,0.112l0.034,0.111l0.034,0.111l0.036,0.11l0.036,0.11l0.038,0.11l0.039,0.109l0.04,0.108l0.041,0.108l0.042,0.108l0.043,0.107l0.044,0.106l0.045,0.106l0.046,0.105l0.047,0.105l0.048,0.105l0.049,0.103l0.05,0.103l0.051,0.103l0.052,0.102l0.053,0.102l0.054,0.101l0.055,0.1l0.056,0.1l0.057,0.099l0.057,0.099l0.059,0.098l0.06,0.097l0.06,0.097l0.062,0.096l0.062,0.095l0.064,0.095l0.064,0.095l0.065,0.093l0.066,0.093l0.067,0.092l0.068,0.092l0.069,0.091l0.07,0.09l0.07,0.089l0.071,0.089l0.073,0.088l0.073,0.088l0.073,0.086l0.075,0.086l0.076,0.085l0.076,0.085l0.077,0.084l0.078,0.082l0.079,0.083l0.079,0.081l0.081,0.081l0.081,0.08l0.082,0.079l0.082,0.078l0.083,0.077l0.085,0.077l0.085,0.076l0.085,0.075l0.086,0.074l0.088,0.074l0.087,0.072l0.089,0.072l0.089,0.071l0.09,0.07l0.09,0.069l0.092,0.068l0.092,0.067l0.092,0.067l0.094,0.065l0.094,0.065l0.094,0.064l0.095,0.063l0.096,0.062l0.097,0.061l0.097,0.06l0.097,0.059l0.099,0.058l0.099,0.057l0.099,0.057l0.1,0.055l0.101,0.054l0.101,0.054l0.102,0.052l0.103,0.052l0.103,0.05l0.103,0.05l0.104,0.048l0.105,0.048l0.105,0.046l0.106,0.046l0.106,0.044l0.107,0.043l0.107,0.043l0.108,0.041l0.108,0.04l0.109,0.04l0.109,0.038l0.11,0.037l0.11,0.036l0.125,0.039l0.171,0.06l0.167,0.07l0.163,0.08l0.157,0.09l0.152,0.099l0.146,0.108l0.139,0.116l0.131,0.125l0.124,0.132l0.115,0.14l0.107,0.146l0.098,0.153l0.088,0.158l0.079,0.163l0.069,0.168l0.058,0.172l0.048,0.174l0.038,0.178l0.026,0.179l0.016,0.18l0.005,0.182l-0.007,0.181l-0.017,0.18l-0.028,0.179l-0.038,0.177l-0.05,0.175l-0.059,0.171l-0.07,0.167l-0.08,0.162l-0.09,0.158l-0.099,0.152l-0.108,0.145l-0.117,0.139l-0.124,0.132l-0.133,0.123l-0.139,0.116l-0.147,0.107l-0.152,0.097l-0.158,0.089l-0.164,0.079l-0.167,0.068l-0.172,0.059l-0.175,0.048l-0.177,0.037l-0.179,0.027l-0.181,0.015l-0.181,0.005l-0.181,-0.006l-0.18,-0.017l-0.18,-0.028l-0.177,-0.039l-0.174,-0.049l-0.154,-0.049l-0.168,-0.055l-0.166,-0.056l-0.166,-0.058l-0.166,-0.06l-0.164,-0.061l-0.164,-0.063l-0.163,-0.064l-0.162,-0.066l-0.162,-0.068l-0.16,-0.069l-0.16,-0.07l-0.159,-0.072l-0.158,-0.074l-0.157,-0.075l-0.157,-0.077l-0.155,-0.078l-0.155,-0.079l-0.153,-0.081l-0.153,-0.083l-0.152,-0.084l-0.151,-0.085l-0.15,-0.087l-0.149,-0.088l-0.148,-0.09l-0.147,-0.091l-0.146,-0.092l-0.145,-0.094l-0.144,-0.095l-0.143,-0.097l-0.142,-0.098l-0.141,-0.099l-0.141,-0.1l-0.139,-0.102l-0.138,-0.103l-0.137,-0.105l-0.136,-0.106l-0.134,-0.107l-0.134,-0.108l-0.133,-0.11l-0.131,-0.111l-0.131,-0.112l-0.129,-0.113l-0.128,-0.115l-0.127,-0.115l-0.126,-0.118l-0.125,-0.118l-0.124,-0.119l-0.122,-0.121l-0.122,-0.122l-0.12,-0.123l-0.119,-0.124l-0.117,-0.125l-0.117,-0.127l-0.115,-0.127l-0.114,-0.129l-0.113,-0.13l-0.112,-0.131l-0.11,-0.132l-0.109,-0.133l-0.108,-0.134l-0.107,-0.135l-0.105,-0.137l-0.104,-0.137l-0.102,-0.139l-0.102,-0.139l-0.1,-0.141l-0.098,-0.141l-0.098,-0.143l-0.096,-0.143l-0.094,-0.145l-0.093,-0.145l-0.092,-0.147l-0.091,-0.147l-0.089,-0.149l-0.087,-0.149l-0.086,-0.151l-0.085,-0.151l-0.083,-0.152l-0.082,-0.153l-0.081,-0.154l-0.079,-0.155l-0.077,-0.156l-0.076,-0.157l-0.075,-0.157l-0.073,-0.159l-0.071,-0.159l-0.07,-0.16l-0.068,-0.161l-0.067,-0.162l-0.065,-0.162l-0.064,-0.164l-0.062,-0.164l-0.061,-0.165l-0.059,-0.165l-0.057,-0.167l-0.056,-0.167l-0.054,-0.168l-0.052,-0.169l-0.051,-0.169l-0.049,-0.17l-0.048,-0.171l-0.046,-0.171l-0.044,-0.172l-0.042,-0.173l-0.041,-0.174l-0.039,-0.174l-0.037,-0.174l-0.036,-0.176l-0.034,-0.176l-0.032,-0.176l-0.03,-0.177l-0.029,-0.178l-0.027,-0.178l-0.025,-0.179l-0.023,-0.179l-0.021,-0.18l-0.02,-0.18l-0.018,-0.181l-0.015,-0.182l-0.015,-0.181l-0.012,-0.183l-0.01,-0.182l-0.009,-0.184l-0.006,-0.183l-0.005,-0.184l-0.003,-0.185l-0.001,-0.185l0.001,-0.19l0.003,-0.19l0.005,-0.19l0.007,-0.19l0.009,-0.189l0.011,-0.189l0.014,-0.188l0.015,-0.187l0.016,-0.187l0.019,-0.187l0.021,-0.186l0.023,-0.186l0.025,-0.185l0.026,-0.184l0.029,-0.184l0.03,-0.183l0.033,-0.182l0.034,-0.182l0.036,-0.182l0.038,-0.18l0.039,-0.18l0.042,-0.18l0.043,-0.178l0.046,-0.178l0.047,-0.177l0.048,-0.177l0.051,-0.176l0.052,-0.175l0.054,-0.174l0.056,-0.173l0.058,-0.173l0.059,-0.172l0.061,-0.171l0.063,-0.17l0.064,-0.169l0.066,-0.169l0.068,-0.168l0.069,-0.166l0.071,-0.166l0.073,-0.165l0.074,-0.165l0.076,-0.163l0.077,-0.162l0.08,-0.162l0.08,-0.16l0.082,-0.16l0.084,-0.158l0.086,-0.158l0.087,-0.156l0.088,-0.156l0.09,-0.155l0.091,-0.153l0.093,-0.153l0.095,-0.152l0.096,-0.15l0.097,-0.15l0.099,-0.148l0.1,-0.147l0.102,-0.147l0.103,-0.145l0.105,-0.144l0.106,-0.143l0.107,-0.142l0.109,-0.14l0.11,-0.14l0.112,-0.138l0.112,-0.138l0.115,-0.136l0.115,-0.135l0.117,-0.134l0.118,-0.132l0.12,-0.131l0.12,-0.131l0.123,-0.128l0.123,-0.128l0.125,-0.127l0.125,-0.125l0.128,-0.124l0.128,-0.122l0.129,-0.122l0.131,-0.12l0.132,-0.119l0.133,-0.117l0.135,-0.116l0.136,-0.115l0.136,-0.113l0.138,-0.113l0.139,-0.11l0.14,-0.11l0.142,-0.108l0.142,-0.106l0.144,-0.106l0.145,-0.103l0.145,-0.103l0.147,-0.101l0.148,-0.099l0.149,-0.098l0.15,-0.097l0.151,-0.095l0.152,-0.094l0.154,-0.092l0.154,-0.09l0.155,-0.089l0.156,-0.088l0.157,-0.086l0.158,-0.085l0.159,-0.083l0.161,-0.081l0.161,-0.08l0.161,-0.078l0.163,-0.077l0.164,-0.075l0.165,-0.073l0.165,-0.072l0.167,-0.07l0.167,-0.068l0.168,-0.067l0.169,-0.065l0.17,-0.064l0.171,-0.062l0.171,-0.06l0.173,-0.058l0.173,-0.057l0.174,-0.054l0.174,-0.054l0.176,-0.051l0.176,-0.049l0.161,-0.044l0.177,-0.042l0.178,-0.031l0.18,-0.021l0.181,-0.009l0.181,0.001Z" style="fill:#fff;"/></svg>