<?xml version="1.0" encoding="UTF-8" standalone="no"?><!DOCTYPE svg PUBLIC "-//W3C//DTD SVG 1.1//EN" "http://www.w3.org/Graphics/SVG/1.1/DTD/svg11.dtd"><svg width="100%" height="100%" viewBox="0 0 115 94" version="1.1" xmlns="http://www.w3.org/2000/svg" xmlns:xlink="http://www.w3.org/1999/xlink" xml:space="preserve" style="fill-rule:evenodd;clip-rule:evenodd;stroke-linecap:round;stroke-linejoin:round;stroke-miterlimit:1.5;"><path d="M73.629,20.597l0,72.406l-73.629,0l0,-92.583l53.629,0l20,20.177Zm-71.629,-18.177l0,88.583l69.629,0l0,-69.583l-18.834,-19l-50.795,0Z" style="fill:#3d4394;"/><path d="M73.627,21.005l-20.405,0l0,-20.585l20.405,20.585Zm-18.405,-2l13.607,0l-13.607,-13.726l0,13.726Z" style="fill:#3d4394;"/><path d="M84.081,15.556l14.556,-14.556l14.428,14.428" style="fill:none;stroke:#3d4394;stroke-width:2px;"/><path d="M1.71,21.003l35.104,0" style="fill:none;stroke:#3d4394;stroke-width:2px;"/><path d="M1.71,38.94l70.209,0" style="fill:none;stroke:#3d4394;stroke-width:2px;"/><path d="M1.71,73.567l70.209,0" style="fill:none;stroke:#3d4394;stroke-width:2px;"/><path d="M1.71,56.085l70.209,0" style="fill:none;stroke:#3d4394;stroke-width:2px;"/><path d="M19.262,21.003l0,70.29" style="fill:none;stroke:#3d4394;stroke-width:2px;"/><path d="M54.025,38.94l0,52.353" style="fill:none;stroke:#3d4394;stroke-width:2px;"/><path d="M36.814,21.003l0,70.29" style="fill:none;stroke:#3d4394;stroke-width:2px;"/><path d="M98.573,92.873l0,-78.686" style="fill:none;stroke:#3d4394;stroke-width:2px;"/></svg>